<?xml version="1.0" encoding="UTF-8" standalone="no"?>
<svg
   version="1.1"
   width="1600"
   height="900"
   viewBox="0 0 1600 900"
   id="svg41"
   sodipodi:docname="audits.svg"
   inkscape:version="1.3.2 (091e20e, 2023-11-25)"
   xmlns:inkscape="http://www.inkscape.org/namespaces/inkscape"
   xmlns:sodipodi="http://sodipodi.sourceforge.net/DTD/sodipodi-0.dtd"
   xmlns="http://www.w3.org/2000/svg"
   xmlns:svg="http://www.w3.org/2000/svg">
  <defs
     id="defs41" />
  <sodipodi:namedview
     id="namedview41"
     pagecolor="#ffffff"
     bordercolor="#111111"
     borderopacity="1"
     inkscape:showpageshadow="0"
     inkscape:pageopacity="0"
     inkscape:pagecheckerboard="1"
     inkscape:deskcolor="#d1d1d1"
     inkscape:zoom="0.31139706"
     inkscape:cx="920.04722"
     inkscape:cy="439.95277"
     inkscape:window-width="1920"
     inkscape:window-height="999"
     inkscape:window-x="0"
     inkscape:window-y="25"
     inkscape:window-maximized="0"
     inkscape:current-layer="svg41" />
  <g
     id="g1"
     transform="translate(160.00007,-189.99904)">
    <g
       id="layer1"
       transform="translate(96.376475,-444.61497)"
       style="display:inline;opacity:0.667">
      <path
         d="m 255.7529,1205.7786 c 0.0146,0.042 0.0179,0.072 0.0149,0.072 -0.002,0 -0.009,-0.02 -0.0164,-0.068 v 10e-4 c -3e-4,0 -5.4e-4,0 -7.9e-4,-0.01 l -0.002,10e-4 c 3.7e-4,0 7.3e-4,0 10e-4,0 z m -0.13501,-173.7779 c -0.26434,-5e-4 -0.33154,0.2857 -0.3255,0.2857 l 0.002,10e-4 c -0.31836,1.4509 -0.45037,29.5671 -0.45876,86.7956 -0.007,47.0183 0.12039,85.6624 0.30569,86.7998 v 10e-4 c -0.005,-0.03 -0.009,-0.045 -0.0112,-0.05 l -0.002,10e-4 c -0.004,0.025 0.0548,0.3315 0.32635,0.3317 0.0177,-2e-4 0.0405,0 0.0556,0 l 10e-4,-2e-4 c 1.03515,-0.1096 10.62536,-5.5222 13.83886,-7.7852 l -6e-5,10e-4 c 13.4379,-9.3264 24.98258,-22.4805 32.05234,-36.4763 4.11389,-8.1331 7.7616,-19.7637 9.14862,-29.0943 l 6e-5,-5e-4 c 1.06458,-7.257 1.06641,-20.1765 0.004,-27.3886 v 10e-4 c -3.96732,-26.9705 -18.97342,-50.8033 -41.55362,-66.0472 h -0.002 c -2.99602,-1.982 -7.1023,-4.4746 -9.09734,-5.4961 h -0.003 c -1.935,-0.967 -3.79743,-1.8171 -4.21772,-1.8694 l -1.8e-4,10e-4 c -0.0191,0 -0.0425,-0.01 -0.0631,0 z"
         id="path2"
         style="fill:#64b2e1;fill-opacity:1;stroke-linejoin:miter" />
      <path
         d="m 341.2639,937.80884 c 0.1414,0.0589 0.29723,0.12456 0.46813,0.1972 l 9.7e-4,3.6e-4 c 0.85877,0.36207 1.56116,1.0006 1.66156,1.40205 l 4.9e-4,0.002 7.9e-4,0.003 0.0115,0.0441 6e-5,3.5e-4 c 0.004,0.015 0.007,0.0272 0.0107,0.0411 l 6e-5,1.5e-4 c 0.002,0.007 0.004,0.0145 0.006,0.0216 -0.35766,-0.25585 -1.0022,-0.77155 -2.11156,-1.66965 v 9.5e-4 c -0.0175,-0.0152 -0.0347,-0.0293 -0.0516,-0.0432 z M 494.00995,818.5616 c -186.81635,-0.0273 -222.27762,0.0762 -224.03201,0.5438 l -0.002,4.3e-4 c -7.66272,2.10167 -13.46289,8.45594 -14.68018,16.12934 l -7.9e-4,0.005 c -0.28064,1.9628 -0.37604,31.4647 -0.33725,81.9384 v 3.5e-4 l 0.12649,78.94835 c 1.9e-4,0.1287 0.0802,0.2438 0.20075,0.289 l 5.2934,1.97994 1.8e-4,10e-4 c 30.99719,11.62219 56.29736,34.67939 70.52838,64.20939 h 6e-5 c 3.53802,7.3526 5.87812,13.3223 7.71289,19.5637 v 10e-4 c 10.74127,37.1094 4.85613,76.3281 -16.13525,108.0584 v 9e-4 c -14.4227,21.7161 -35.73407,38.9361 -60.25836,48.5303 l 6e-5,10e-4 c -3.15192,1.2314 -6.1427,2.4436 -6.54248,2.6931 l -8e-4,10e-4 c -0.79242,0.457 -0.83923,2.5847 -0.97424,10.9358 h -6e-5 c -0.13995,12.2803 0.22137,15.7173 2.28656,19.7544 l -6e-5,7e-4 c 2.52661,4.9614 6.87762,8.4656 12.52258,10.1463 l -1.8e-4,9e-4 c 2.36261,0.7071 33.44974,0.7539 367.48546,0.8025 334.147,0.049 365.1277,0.011 367.4858,-0.6968 h 10e-5 c 7.1386,-2.1455 11.7283,-6.5454 14.0629,-13.6384 h 7e-4 c 0.803,-2.5022 0.8455,-11.2497 0.8753,-217.8816 0.027,-182.83147 -0.056,-215.60752 -0.6268,-217.46322 v 9.5e-4 c -1.8636,-6.06245 -5.4633,-10.36935 -11.0237,-12.98745 l -3.4522,-1.6577 c -0.042,-0.0199 -0.087,-0.0304 -0.1336,-0.0303 l -365.97,-0.1462 -10e-5,9.7e-4 -144.4113,-0.0356 z"
         id="path3"
         style="fill:#64b2e1;fill-opacity:1;stroke-linejoin:miter" />
      <path
         d="m 292.6618,1192.2773 99.91373,0.015 99.91367,0.015 q -0.002,13.1716 -0.004,26.3432 -99.91383,-0.014 -199.82751,-0.028 0.002,-13.1728 0.004,-26.3455"
         id="path4"
         style="fill:#76c1eb;fill-opacity:1;stroke-linejoin:miter" />
      <path
         d="m 292.65613,1230.4929 161.45239,0.024 161.45228,0.024 q -0.002,13.1721 -0.004,26.344 -161.45233,-0.023 -322.90479,-0.046 0.002,-13.1726 0.004,-26.3452"
         id="path5"
         style="fill:#76c1eb;fill-opacity:1;stroke-linejoin:miter" />
      <path
         d="m 293.1347,890.48303 144.04187,0.0217 144.04183,0.0213 q -0.0201,137.57527 -0.0402,275.15047 -144.04178,-0.02 -288.08374,-0.041 0.0202,-137.5764 0.0403,-275.15294"
         id="path6"
         style="fill:#76c1eb;fill-opacity:1;stroke-linejoin:miter" />
      <path
         d="m 377.6466,969.5282 c -33.05172,29.25635 -60.33108,53.3987 -60.63394,53.6679 l -0.55536,0.4879 6.35938,7.1522 c 3.48248,3.9377 6.40985,7.1352 6.47722,7.1184 0.0673,-0.034 24.3681,-21.5176 54.00334,-47.7459 29.63538,-26.2282 54.12134,-47.89693 54.42432,-48.1492 l 0.53857,-0.4543 54.41004,48.2159 c 29.91383,26.5062 54.46083,48.1823 54.52803,48.1657 0.2694,-0.1013 12.6053,-14.1491 12.5546,-14.301 -0.0334,-0.1005 -27.27215,-24.28455 -60.53423,-53.7359 -53.33337,-47.2397 -60.51734,-53.5508 -60.75293,-53.33216 -0.21881,0.2019 -0.28614,0.20206 -0.50482,-0.0168 -0.20192,-0.21864 -7.85902,6.49395 -60.31422,52.9273 z"
         id="path7"
         style="fill:#206cb7;fill-opacity:1;stroke-linejoin:miter" />
      <path
         d="m 352.66125,954.63324 c -0.003,22.54742 -0.003,22.81671 0.31641,22.59786 0.18518,-0.1347 7.08508,-6.3256 15.31427,-13.77846 l 14.99439,-13.54334 5.5e-4,-3.87 c 3e-4,-2.1201 0.0514,-6.1923 0.11913,-9.0528 l 0.10163,-5.1657 -15.41299,-10e-4 -15.43,-0.003 z"
         id="path8"
         style="fill:#206cb7;fill-opacity:1;stroke-linejoin:miter" />
      <path
         d="m 395.4286,995.64545 -42.77882,37.87045 0.0257,54.6028 0.0426,54.6188 0.37012,0.7906 c 0.50457,1.1108 1.5982,2.2217 2.62451,2.6762 l 0.87494,0.4036 27.29266,0.055 27.30975,0.038 0.0372,-24.4324 0.054,-24.4487 0.45453,-0.8584 c 0.60577,-1.1438 1.8175,-2.1873 2.91119,-2.5068 0.74053,-0.2185 3.87018,-0.2518 23.91077,-0.2146 l 23.03546,0.053 0.70667,0.3867 c 1.11047,0.5889 1.85063,1.3299 2.35546,2.3562 l 0.47107,0.9598 0.0468,24.3645 0.0301,24.3481 27.30958,-0.03 27.29292,-0.046 0.7741,-0.3535 c 1.06024,-0.4875 2.01934,-1.3965 2.5075,-2.3721 l 0.42084,-0.8076 0.0584,-54.8542 0.0414,-54.855 -42.16183,-37.3608 c -23.18433,-20.5488 -42.41455,-37.56315 -42.7005,-37.8156 l -0.53852,-0.4374 z"
         id="path9"
         style="fill:#206cb7;fill-opacity:1;stroke-linejoin:miter" />
      <path
         d="m 273.606,791.87555 c -8.65437,0.64405 -15.14552,2.43805 -21.26848,5.98199 -9.11518,5.2464 -16.11378,13.11666 -20.21223,22.69226 -2.02609,4.78644 -3.03958,8.79163 -3.63859,14.36176 -0.27674,2.6236 -0.46554,33.92644 -0.47227,79.77684 l -0.011,75.496 -11.83055,0.0431 c -13.21183,-0.002 -20.11717,0.73386 -30.98148,3.35666 -43.64172,10.39774 -78.72443,42.98394 -92.54081,85.88634 -1.84235,5.6613 -3.91536,14.592 -4.928916,20.9441 -1.151954,7.642 -1.201254,29.3232 -0.0054,36.781 2.48353,15.6066 6.486715,28.0354 13.343836,41.479 3.08338,6.0312 8.97435,15.0996 13.25491,20.4414 1.61084,1.9795 3.22171,4.0051 3.58997,4.5114 0.5982,0.8284 0.18401,1.335 -5.75553,7.3186 l -6.39955,6.3982 -2.07128,-2.0258 c -1.15065,-1.105 -2.5317,-2.2557 -3.08389,-2.5328 -1.242896,-0.6447 -3.820561,-0.645 -5.385996,-0.047 -1.28877,0.4602 -128.499552,127.0808 -131.538332,130.8548 -1.473313,1.8422 -1.795538,2.624 -1.79578,4.2814 -1.68e-4,1.1517 0.275768,2.6241 0.643992,3.3145 0.828256,1.4729 19.42336,20.0273 20.850163,20.7646 1.472998,0.7376 4.833603,0.5994 6.122515,-0.229 2.210043,-1.4724 131.216208,-130.6713 131.906998,-132.1452 1.47343,-3.0374 0.73754,-5.9837 -2.2544,-8.8386 -0.92051,-0.875 -1.65685,-1.8411 -1.6568,-2.1175 3e-5,-0.2302 2.76246,-3.2683 6.16934,-6.6277 5.75526,-5.7539 6.26158,-6.122 7.09022,-5.5241 0.50618,0.3691 2.5315,1.9802 4.51072,3.5925 15.00521,12.1086 34.20021,21.0884 53.57991,25.0955 9.71289,1.9814 16.66397,2.6269 28.31062,2.5371 l 10.58766,-0.091 0.27481,10.0816 c 0.45791,15.4673 2.02243,21.2217 8.28159,31.073 2.34726,3.6836 8.69891,10.1753 12.47328,12.7534 3.54431,2.4402 10.40301,5.4805 15.32849,6.8616 l 4.60291,1.289 367.81194,0.055 c 300.2793,0.042 368.36381,-0.039 370.80341,-0.5459 14.6857,-2.9434 26.5636,-11.7342 33.7467,-24.9456 2.0723,-3.8201 4.283,-10.862 4.6976,-14.96 0.1846,-1.7487 0.3833,-100.5373 0.4006,-219.5825 0.024,-167.70114 -0.1064,-216.95734 -0.5207,-219.12099 -4.1399,-20.39325 -19.8362,-35.31065 -40.2748,-38.21445 -4.0046,-0.59896 -54.41181,-0.6529 -367.16641,-0.6522 -199.3729,0.0175 -363.43813,0.0857 -364.589,0.17665 z m 734.2374,28.8335 c 5.4777,2.57835 9.0222,6.81415 10.8622,12.79845 0.5523,1.7956 0.6396,34.47974 0.6131,217.3729 -0.03,206.6924 -0.077,215.3466 -0.8606,217.7863 -2.3027,6.9966 -6.8146,11.323 -13.8584,13.44 -2.3011,0.6902 -33.1899,0.7322 -367.39664,0.6833 -334.11506,-0.049 -365.09586,-0.1 -367.39718,-0.7907 -5.57013,-1.658 -9.85071,-5.1106 -12.33576,-9.9915 -2.02502,-3.9585 -2.3927,-7.3186 -2.25262,-19.6098 0.13928,-8.6084 0.23144,-10.3575 0.82995,-10.6802 0.36835,-0.23 3.31458,-1.4258 6.49122,-2.6685 24.58361,-9.6172 45.94558,-26.8779 60.40356,-48.6487 21.0423,-31.8071 26.94037,-71.1201 16.17395,-108.3166 -1.84033,-6.2608 -4.18726,-12.2459 -7.73108,-19.6118 -14.266,-29.6026 -39.62738,-52.7148 -70.69867,-64.36575 l -5.29339,-1.98011 -0.12656,-78.94818 c -0.0387,-50.49966 0.0577,-79.96081 0.33426,-81.89446 1.19763,-7.54957 6.90692,-13.8091 14.45686,-15.8797 2.07158,-0.55213 54.04363,-0.59077 368.3637,-0.4987 l 365.9701,0.14603 z m -781.54797,203.12545 1.70298,0.3227 -0.0139,94.7832 c -0.0131,89.8133 -0.0598,94.7845 -0.79642,95.1072 -0.4604,0.1838 -5.80015,0.3215 -11.87664,0.3206 -8.65447,-0.048 -12.06106,-0.232 -15.65166,-0.8772 -22.92423,-4.1922 -42.94738,-15.6585 -57.39957,-32.969 -28.76609,-34.346 -30.09417,-83.2798 -3.25096,-119.1367 3.63742,-4.7869 12.43123,-13.8545 16.94309,-17.3531 15.92934,-12.3803 31.72002,-18.5005 52.94213,-20.6604 2.43988,-0.2298 15.19137,0.094 17.4009,0.4627 z m 33.46522,10.3161 c 1.97937,1.013 6.07575,3.4998 9.06769,5.4788 22.50836,15.196 37.46612,38.9516 41.42081,65.8352 1.05805,7.1819 1.05609,20.0713 -0.004,27.2988 -1.38227,9.2981 -5.02057,20.8985 -9.11866,29 -7.04546,13.9475 -18.55566,27.064 -31.95291,36.3611 -3.2688,2.3023 -12.9367,7.7334 -13.7193,7.7332 -0.18402,2e-4 -0.31649,-39.0369 -0.30947,-86.7742 0.009,-58.7859 0.15078,-86.7742 0.47311,-86.7739 0.276,0 2.11755,0.8284 4.14276,1.841 z"
         id="path10"
         style="fill:#0b1a29;fill-opacity:1;stroke-linejoin:miter" />
      <path
         d="m 277.81165,959.9597 c 2.89985,2.34773 2.85388,2.3016 2.57782,1.243 -0.13825,-0.5524 -0.96657,-1.2426 -1.84131,-1.6116 -2.16333,-0.92075 -2.25544,-0.875 -0.73651,0.3686 z"
         id="path11"
         style="fill:#000000;fill-opacity:1;stroke-linejoin:miter" />
      <path
         d="m 185.55826,1317.7556 c -0.41437,0.2298 -0.46062,1.5183 -0.27696,4.4192 1.56195,21.7278 15.13923,39.9597 33.78231,45.3484 l 3.59031,1.0598 414.76698,0.061 414.7657,0.06 3.9131,-1.3348 c 7.3199,-2.4851 12.3377,-5.4768 17.5406,-10.4929 6.6295,-6.397 11.5105,-15.2361 14.0437,-25.4546 1.1981,-4.8335 2.0275,-13.5344 1.2912,-13.6264 -1.6109,-0.2759 -903.00268,-0.3152 -903.41694,-0.04 z m 521.56354,11.3543 c 1.19644,0.967 1.42697,1.5193 1.4269,3.177 -3.6e-4,1.7031 -0.23113,2.1638 -1.336,2.945 l -1.335,0.9673 -68.82063,-0.01 -68.77497,-0.012 -1.24255,-1.1971 c -1.65729,-1.7031 -1.61059,-3.7741 0.13865,-5.6626 l 1.3354,-1.4265 68.5907,0.012 68.59034,0.01 z"
         id="path12"
         style="fill:#0b1a29;fill-opacity:1;stroke-linejoin:miter" />
      <path
         d="m 867.65894,831.74347 68.76966,0.0105 68.7696,0.0106 q 0,13.14175 0,26.28369 -68.7697,-0.009 -137.5394,-0.019 0.002,-13.14306 0.004,-26.28589"
         id="path13"
         style="fill:#76c1eb;fill-opacity:1;stroke-linejoin:miter" />
      <path
         d="m 737.7017,1123.5798 54.68557,0.01 54.68513,0.01 q -0.008,53.2661 -0.0158,106.5325 -54.6851,-0.01 -109.3703,-0.015 0.008,-53.2669 0.0154,-106.534"
         id="path14"
         style="fill:#76c1eb;fill-opacity:1;stroke-linejoin:miter" />
      <path
         d="m 293.20053,836.09076 276.72287,0.0408 276.7227,0.0409 q -0.001,9.62944 -0.003,19.2586 -276.72266,-0.0397 -553.4459,-0.0796 10e-4,-9.6304 0.003,-19.26074"
         id="path15"
         style="fill:#f7fcff;fill-opacity:1;stroke-linejoin:miter" />
      <path
         d="m 304.6252,841.67535 75.45604,0.0116 75.45593,0.0116 q -6.7e-4,4.419 -10e-4,8.83806 -75.456,-0.0104 -150.91197,-0.0208 6.1e-4,-4.42015 0.001,-8.8404"
         id="path16"
         style="fill:#76c1eb;fill-opacity:1;stroke-linejoin:miter" />
      <path
         d="m 821.593,1152.4294 c 2.475,0 4.51735,0.015 4.54006,0.038 0.0226,0.023 -0.0609,0.4253 -0.18232,0.8957 -0.12174,0.471 -0.30394,1.1538 -0.40271,1.5337 -0.099,0.3718 -0.30389,1.1463 -0.44823,1.7078 -0.1521,0.5617 -0.41035,1.5561 -0.5849,2.2014 -0.2964,1.1538 -0.5624,2.156 -0.77503,2.9453 -0.0609,0.2202 -0.12907,0.4177 -0.14441,0.4404 -0.0463,0.04 -6.8811,0.1597 -8.6604,0.159 -0.26106,2e-4 -0.41339,0 -0.41919,-0.01 -0.0151,-0.022 0.0229,-0.2348 0.0838,-0.4778 0.0606,-0.2431 0.5925,-2.2697 1.18497,-4.5017 0.5849,-2.2317 1.08618,-4.145 1.11653,-4.2512 0.0229,-0.1064 0.076,-0.3035 0.1217,-0.4402 l 0.0759,-0.2429 z m -7.92045,0.013 c 0.49515,0 0.83569,0.023 0.8753,0.062 0.0532,0.053 -0.008,0.3948 -0.17455,1.0474 -0.14436,0.5317 -0.37245,1.4045 -0.5093,1.9509 -0.1367,0.5393 -0.3796,1.4651 -0.53923,2.0495 -0.31907,1.2151 -0.61542,2.3687 -0.72917,2.8089 -0.0381,0.167 -0.17495,0.6831 -0.3041,1.154 l -0.2354,0.8431 -0.9184,0.045 c -0.50873,0.022 -2.4827,0.06 -4.3805,0.082 -1.8977,0.023 -5.0181,0.06 -6.93115,0.09 l -3.46935,0.045 0.0159,-5.0405 0.0237,-5.0406 8.0093,-0.037 c 4.40305,-0.022 8.4719,-0.045 9.04136,-0.06 0.0782,0 0.15354,0 0.22559,0 z m -23.46161,0.072 c 2.18402,2e-4 3.794,0.016 3.79413,0.04 0.0226,0.3418 0.0137,10.0513 -0.009,10.074 -0.0562,0.056 -9.48779,0.1677 -12.85339,0.1674 -0.72242,-4e-4 -1.16541,-0.01 -1.17596,-0.018 -0.0383,-0.038 -0.13685,-0.3413 -0.2202,-0.6755 -0.2731,-1.0855 -1.60854,-6.2178 -1.72244,-6.605 -0.19696,-0.6904 -0.72076,-2.7558 -0.72056,-2.8394 0,-0.083 1.7004,-0.1062 11.4862,-0.1423 0.49224,0 0.9692,0 1.42144,0 z m -21.80034,0.073 c 0.3661,0 0.74547,3e-4 1.134,0 l 5.3599,0.024 0.12864,0.5315 c 0.0684,0.2886 0.25056,1.0098 0.40246,1.5943 0.1591,0.5842 0.41706,1.5717 0.5763,2.2014 0.16706,0.6226 0.57685,2.2095 0.9183,3.5156 0.34135,1.3054 0.6069,2.3838 0.59165,2.3987 -0.0444,0.044 -7.4436,0.1404 -9.91715,0.1401 -0.4894,-2e-4 -0.78585,0 -0.79476,-0.013 -0.0302,-0.023 -0.13644,-0.3872 -0.23514,-0.8049 -0.1061,-0.4172 -0.27304,-1.0854 -0.37924,-1.48 -0.57666,-2.1716 -1.00922,-3.8266 -1.35836,-5.1552 -0.2045,-0.8199 -0.4627,-1.7913 -0.56126,-2.1631 -0.0912,-0.3799 -0.15918,-0.7061 -0.13634,-0.7444 0.0196,-0.026 1.85454,-0.046 4.271,-0.046 z m 43.00004,12.1314 -0.0532,0.3264 c -0.0302,0.1821 -0.10624,0.4783 -0.1668,0.668 -0.0608,0.1897 -0.4332,1.6018 -0.83574,3.1504 -1.16976,4.5246 -1.39771,5.4048 -1.8913,7.2881 -0.1596,0.5847 -0.31903,1.2143 -0.3725,1.404 l -0.0835,0.3416 -11.61514,-10e-4 -0.0218,-6.461 -0.0142,-6.468 2.14075,-0.045 c 1.18439,-0.023 4.03131,-0.075 6.32395,-0.1055 2.3001,-0.03 4.7144,-0.068 5.3824,-0.075 z m -33.71069,0.469 c 0.24512,0 0.37245,0.025 0.42135,0.08 0.0835,0.099 0.34904,1.0781 1.41874,5.2234 0.31876,1.2302 0.64496,2.46 0.72086,2.7329 0.0835,0.2734 0.18203,0.6301 0.22,0.7974 0.0379,0.167 0.2731,1.0932 0.5312,2.0576 0.2504,0.9641 0.46275,1.7761 0.46275,1.8066 0,0.019 -1.64485,0.032 -3.8858,0.032 -0.48235,0 -0.99215,-8e-4 -1.51929,0 l -5.40536,-0.024 -0.2125,-0.835 c -0.1213,-0.4633 -0.3339,-1.2829 -0.47796,-1.8222 -0.28834,-1.1158 -0.6145,-2.376 -0.9104,-3.4922 -1.38104,-5.2539 -1.6388,-6.271 -1.59334,-6.3394 0.0305,-0.046 0.89595,-0.083 2.1865,-0.083 2.27757,-0.015 6.9464,-0.09 7.84214,-0.1277 0.0744,0 0.14136,0 0.20111,0 z m 16.28805,-0.2434 0.0227,0.2121 c 0.0229,0.167 0.0206,12.4956 -0.002,12.7161 -0.007,0.038 -2.2773,0.06 -5.0484,0.06 l -5.0409,-2e-4 -0.1212,-0.3648 c -0.0607,-0.1972 -0.6982,-2.6111 -1.4112,-5.3672 -0.72085,-2.7566 -1.419,-5.4511 -1.55526,-5.998 -0.14424,-0.5391 -0.24298,-0.9946 -0.22774,-1.0095 0.0304,-0.038 2.4443,-0.083 8.3129,-0.1509 2.11046,-0.029 4.1147,-0.06 4.4489,-0.075 z m 27.5321,-0.3582 c 0.9113,3e-4 1.4212,0.023 1.4451,0.065 0.0228,0.039 0.0153,0.1372 -0.0303,0.2051 -0.038,0.076 -0.0836,0.2356 -0.10654,0.3647 -0.0226,0.1214 -0.1288,0.5542 -0.2352,0.9488 -0.4408,1.6323 -0.7521,2.809 -0.91925,3.4541 -0.0988,0.3723 -0.30389,1.1616 -0.45581,1.7461 -0.15949,0.5847 -0.41779,1.5717 -0.58504,2.2016 -0.3114,1.1768 -0.39476,1.511 -0.8429,3.2036 -0.14426,0.5464 -0.28886,1.0325 -0.31913,1.0779 -0.0304,0.061 -1.42737,0.083 -4.52457,0.083 -4.2057,-3e-4 -4.4716,-0.01 -4.4716,-0.1372 0,-0.1138 1.2459,-4.9419 2.30916,-8.9732 0.0988,-0.3571 0.36464,-1.3969 0.60779,-2.3078 0.23555,-0.9182 0.47088,-1.7154 0.51665,-1.7688 0.0606,-0.076 0.60725,-0.098 2.3686,-0.1133 1.25244,-0.015 3.2643,-0.03 4.46374,-0.045 0.28526,0 0.54556,0 0.77926,0 z m -12.8222,32.1028 c 0.487,0 0.9731,0.05 1.3645,0.1504 1.9129,0.4858 3.4233,1.8828 4.1142,3.8188 0.17435,0.4935 0.19724,0.6604 0.19694,1.7234 0.007,1.1084 -0.008,1.2068 -0.21284,1.784 -0.1898,0.5388 -0.30377,0.7742 -0.6305,1.3584 -0.1822,0.3266 -0.81993,1.0095 -1.306,1.3969 -0.5769,0.4632 -1.3512,0.8582 -2.0574,1.0481 -0.34576,0.093 -0.9093,0.1409 -1.47216,0.1407 -0.57394,0 -1.14744,-0.049 -1.48844,-0.1492 -1.3437,-0.3799 -2.619,-1.3211 -3.35506,-2.4678 -1.16907,-1.8447 -1.1839,-4.2744 -0.0296,-6.0959 0.8125,-1.283 2.03477,-2.1861 3.46227,-2.5506 0.4021,-0.1042 0.9085,-0.1574 1.4141,-0.1572 z m -30.47067,-0.01 c 0.46477,0 0.92621,0.052 1.35467,0.1609 1.5031,0.3799 2.7783,1.3286 3.56764,2.6502 1.92022,3.2341 0.24176,7.4013 -3.4021,8.4409 -0.4112,0.1194 -0.95838,0.1787 -1.51124,0.1784 -0.5703,0 -1.14697,-0.063 -1.5862,-0.186 -2.68754,-0.7522 -4.5392,-3.5385 -4.1442,-6.226 0.28863,-1.9815 1.3897,-3.5147 3.1969,-4.4556 0.7066,-0.3657 1.6215,-0.5628 2.52453,-0.5628 z m -18.67858,-58.4487 c -0.36345,0 -0.90119,0.01 -1.70045,0.022 -1.3438,0.023 -4.0236,0.068 -5.9446,0.09 -0.6095,0.01 -1.1164,0.014 -1.5381,0.019 l 7e-4,10e-4 -3.6e-4,3.5274 v 4e-4 c 0.77586,-0.011 1.96806,-0.023 3.26846,-0.032 l 3.9552,-0.03 0.5995,2.2774 c 0.32626,1.2529 0.751,2.8772 0.9407,3.6062 0.18976,0.7287 0.4479,1.7231 0.57666,2.2016 0.12134,0.4778 0.30344,1.1765 0.40214,1.5567 0.0986,0.3716 0.38704,1.4648 0.63717,2.4289 0.48553,1.8523 1.27473,4.8665 2.73919,10.4771 0.11374,0.4553 0.31864,1.2297 0.44019,1.7082 0.12878,0.4781 0.31842,1.1992 0.41715,1.5938 0.53854,2.0425 2.00283,7.6379 2.2989,8.769 0.1895,0.7063 0.78145,3.0669 1.32783,5.2383 0.53864,2.1716 1.01647,4.0693 1.05457,4.2136 0.0455,0.1443 0.38714,1.5259 0.75867,3.075 0.37923,1.541 0.71337,2.9301 0.75866,3.0749 0.0382,0.1441 0.24297,0.979 0.45527,1.8599 0.2124,0.8728 0.4173,1.7082 0.4552,1.8523 0.0608,0.2353 0.0455,0.2812 -0.3645,0.7663 -1.678,1.9966 -2.4527,4.8511 -1.9975,7.3943 0.1972,1.1009 0.364,1.6096 0.8423,2.5892 1.1611,2.3991 3.42314,4.229 6.0422,4.8969 0.7154,0.1836 1.45046,0.2717 2.185,0.2717 2.6487,8e-4 5.2961,-1.1479 7.03175,-3.1623 1.51831,-1.7686 2.27785,-3.7952 2.27805,-6.1033 3.3e-4,-1.8301 -0.50797,-3.5532 -1.50974,-5.0713 -0.21266,-0.3266 -0.3872,-0.6077 -0.3872,-0.623 0,-0.023 3.55294,-0.037 7.89534,-0.037 4.3423,8e-4 7.89506,0.024 7.8952,0.054 -1.4e-4,0.038 -0.14437,0.2656 -0.3189,0.5161 -0.6987,1.0171 -1.2454,2.3682 -1.4732,3.7119 -0.1825,1.0252 -0.11453,2.6345 0.1587,3.6819 0.6904,2.6572 2.33767,4.7451 4.744,5.9905 1.3429,0.7056 2.67857,1.0256 4.2343,1.0259 0.0182,0 0.0364,0 0.0547,-3e-4 1.5716,-0.01 2.6269,-0.2575 4.0996,-0.9709 3.8723,-1.8899 5.90764,-6.3462 4.82244,-10.5518 -0.8725,-3.3784 -3.49884,-5.9297 -6.98324,-6.7654 -0.539,-0.1289 -1.5334,-0.1442 -18.38706,-0.1845 -9.79314,-0.024 -17.82514,-0.056 -17.84027,-0.079 -0.0303,-0.031 -1.00157,-3.9253 -1.57817,-6.3016 -0.31124,-1.2907 -1.04696,-4.2214 -1.1837,-4.7297 -0.0606,-0.2432 -0.0985,-0.4934 -0.0759,-0.5547 0.0381,-0.091 3.5756,-0.1054 25.30304,-0.102 h 25.26516 l 0.448,-1.7314 c 0.72165,-2.771 1.04825,-4.0164 1.57236,-5.9749 0.11374,-0.4629 0.36469,-1.4194 0.55484,-2.1252 0.1821,-0.7136 0.41006,-1.5637 0.5011,-1.898 0.0837,-0.3342 0.53934,-2.0422 0.9952,-3.7956 0.4632,-1.7539 0.9039,-3.4314 0.97956,-3.7203 0.0762,-0.2958 0.24329,-0.926 0.37234,-1.404 0.1216,-0.4783 0.48624,-1.8674 0.8052,-3.0747 0.31904,-1.2146 0.6608,-2.5127 0.7598,-2.8845 0.0987,-0.3797 0.3035,-1.1616 0.45554,-1.7461 0.15976,-0.5845 0.46356,-1.7612 0.69141,-2.6121 l 0.40259,-1.5483 -20.39904,0.043 c -11.2206,0.029 -26.4112,0.072 -33.7676,0.1017 -3.37957,0.011 -6.1964,0.017 -8.36254,0.017 -3.24956,-4e-4 -5.03363,-0.015 -5.05166,-0.042 -0.0381,-0.068 -0.4325,-1.5259 -0.97885,-3.5984 -0.12145,-0.4783 -0.32648,-1.2681 -0.45535,-1.7461 -0.1213,-0.4783 -0.3033,-1.1848 -0.4022,-1.5564 -0.22015,-0.8731 -0.9408,-3.5989 -0.9941,-3.7813 -0.0295,-0.089 -0.092,-0.1201 -0.78165,-0.1201 z"
         id="path17"
         style="fill:#0c2a48;fill-opacity:1;stroke-linejoin:miter" />
      <path
         d="m 880.535,865.1809 57.2123,0.009 57.21266,0.009 q -0.0183,125.1386 -0.0364,250.2771 -57.2124,-0.01 -114.4251,-0.016 0.0181,-125.1397 0.0365,-250.2791"
         id="path18"
         style="fill:#76c1eb;fill-opacity:1;stroke-linejoin:miter" />
      <path
         d="m 921.05426,894.3514 c -10.20001,9.0291 -18.61856,16.47996 -18.71191,16.5627 l -0.17145,0.1501 1.9625,2.20704 c 1.0749,1.21576 1.97823,2.20172 1.9991,2.1969 0.0208,-0.0101 7.5199,-6.64024 16.6656,-14.73494 9.1455,-8.09373 16.7019,-14.78056 16.79534,-14.8587 l 0.1662,-0.1401 16.79126,14.8796 c 9.2316,8.18 16.8072,14.8696 16.82795,14.8645 0.083,-0.0316 3.89005,-4.36644 3.87438,-4.41325 -0.0102,-0.0312 -8.41653,-7.49469 -18.68139,-16.58325 -16.45899,-14.5788 -18.67609,-16.5266 -18.74864,-16.459 -0.0677,0.0623 -0.0884,0.0622 -0.1559,-0.005 -0.0624,-0.0677 -2.4252,2.00397 -18.61304,16.3337 z"
         id="path19"
         style="fill:#206cb7;fill-opacity:1;stroke-linejoin:miter" />
      <path
         d="m 913.3437,889.7546 c -10e-4,6.95817 -10e-4,7.0414 0.0977,6.974 0.057,-0.0415 2.18645,-1.95205 4.72601,-4.252 l 4.62724,-4.1798 2e-4,-1.1944 c 10e-5,-0.6542 0.0159,-1.911 0.0368,-2.7935 l 0.0313,-1.59424 -4.7564,-3e-4 -4.7619,-8e-4 z"
         id="path20"
         style="fill:#206cb7;fill-opacity:1;stroke-linejoin:miter" />
      <path
         d="m 926.5418,902.41125 -13.20165,11.68695 0.008,16.8511 0.0131,16.8559 0.11431,0.244 c 0.1557,0.34246 0.49329,0.6855 0.81,0.82574 l 0.26984,0.12476 8.42267,0.0167 8.42793,0.0119 0.0114,-7.5401 0.0167,-7.5451 0.14034,-0.2648 c 0.18705,-0.35335 0.5609,-0.6754 0.8985,-0.7738 0.2285,-0.0673 1.1943,-0.0777 7.3789,-0.0666 l 7.10875,0.0165 0.21802,0.1194 c 0.34283,0.18227 0.57129,0.4106 0.72699,0.72755 l 0.14544,0.2959 0.0144,7.51911 0.009,7.51444 8.42785,-0.009 8.4227,-0.0147 0.2389,-0.1086 c 0.3272,-0.15064 0.62313,-0.4311 0.7739,-0.73206 l 0.1299,-0.24958 0.018,-16.92826 0.0127,-16.92885 -13.01156,-11.52948 C 945.93225,896.188 939.9978,890.9375 939.9095,890.8595 l -0.1661,-0.1351 z"
         id="path21"
         style="fill:#206cb7;fill-opacity:1;stroke-linejoin:miter" />
      <path
         d="m 921.58813,978.81195 c -10.19989,9.02899 -18.61846,16.47925 -18.71197,16.56225 l -0.17146,0.15064 1.9627,2.20736 c 1.0747,1.2155 1.9781,2.2022 1.999,2.1971 0.0208,-0.0104 7.52006,-6.6409 16.6656,-14.73484 9.1457,-8.09416 16.702,-14.78146 16.7955,-14.85946 l 0.1662,-0.1402 16.7912,14.8802 c 9.2316,8.18 16.8071,14.8693 16.8279,14.8642 0.0831,-0.0311 3.89,-4.3665 3.87425,-4.4134 -0.0102,-0.0313 -8.41645,-7.4945 -18.68125,-16.58323 -16.459,-14.57867 -18.676,-16.52607 -18.7486,-16.45867 -0.0677,0.062 -0.0884,0.062 -0.1559,-0.005 -0.0622,-0.0676 -2.4253,2.0038 -18.61317,16.33315 z"
         id="path22"
         style="fill:#184d81;fill-opacity:1;stroke-linejoin:miter" />
      <path
         d="m 913.8777,974.21533 c -10e-4,6.95862 -10e-4,7.04163 0.0975,6.97407 0.0572,-0.0418 2.1865,-1.9524 4.7261,-4.25214 l 4.6274,-4.17951 10e-5,-1.19452 c 10e-5,-0.65383 0.0159,-1.91089 0.0368,-2.79358 l 0.0314,-1.59445 -4.7565,-5e-4 -4.7619,-5.7e-4 z"
         id="path23"
         style="fill:#184d81;fill-opacity:1;stroke-linejoin:miter" />
      <path
         d="m 927.07574,986.87225 -13.20144,11.68738 0.008,16.85067 0.0131,16.8556 0.11414,0.2444 c 0.15566,0.3427 0.49316,0.685 0.81,0.8256 l 0.26976,0.1248 8.4226,0.016 8.4281,0.011 0.0114,-7.5393 0.0166,-7.5456 0.14046,-0.2645 c 0.1869,-0.3532 0.5608,-0.6748 0.8983,-0.7736 0.2286,-0.068 1.1944,-0.078 7.37884,-0.067 l 7.10896,0.017 0.2181,0.1194 c 0.3425,0.1818 0.5712,0.4102 0.7268,0.7273 l 0.1454,0.2959 0.0145,7.5192 0.009,7.5137 8.42784,-0.01 8.42275,-0.014 0.23885,-0.1091 c 0.3271,-0.1506 0.6232,-0.4307 0.7739,-0.7322 l 0.1299,-0.2493 0.018,-16.9281 0.0127,-16.9286 -13.0116,-11.5305 c -7.1548,-6.3415 -13.0894,-11.59176 -13.17756,-11.6697 l -0.16614,-0.1352 z"
         id="path24"
         style="fill:#184d81;fill-opacity:1;stroke-linejoin:miter" />
      <path
         d="m 922.12354,1056.1667 c -10.19994,9.0281 -18.61854,16.4783 -18.71198,16.5616 l -0.17136,0.1504 1.9625,2.208 c 1.0749,1.2151 1.9783,2.2019 1.99914,2.1965 0.0208,-0.01 7.51996,-6.6406 16.66546,-14.7346 9.14564,-8.0943 16.702,-14.7813 16.7956,-14.8591 l 0.16614,-0.1402 16.79132,14.8797 c 9.23151,8.1796 16.80694,14.8696 16.8277,14.8645 0.0832,-0.031 3.89004,-4.3667 3.87439,-4.4139 -0.0103,-0.031 -8.41655,-7.4941 -18.68135,-16.5827 -16.45885,-14.5781 -18.6759,-16.5259 -18.74864,-16.4583 -0.0675,0.062 -0.0883,0.062 -0.15583,-0.01 -0.0623,-0.068 -2.42523,2.0042 -18.61309,16.3337 z"
         id="path26"
         style="fill:#0c2a48;fill-opacity:1;stroke-linejoin:miter" />
      <path
         d="m 914.413,1051.5696 c -10e-4,6.9585 -10e-4,7.0415 0.0976,6.9741 0.057,-0.042 2.18658,-1.9519 4.72607,-4.2522 l 4.62732,-4.1797 1.5e-4,-1.1938 c 10e-5,-0.6543 0.0159,-1.9114 0.0368,-2.7942 l 0.0315,-1.594 -4.7566,-5e-4 -4.76174,-7e-4 z"
         id="path27"
         style="fill:#0c2a48;fill-opacity:1;stroke-linejoin:miter" />
      <path
         d="m 927.61115,1064.2261 -13.2016,11.6875 0.008,16.8506 0.013,16.8562 0.11436,0.2439 c 0.15574,0.3425 0.4931,0.6853 0.80984,0.8254 l 0.27,0.125 8.42266,0.017 8.4278,0.012 0.0116,-7.5403 0.0166,-7.5449 0.14024,-0.2644 c 0.187,-0.3533 0.561,-0.6753 0.89845,-0.7739 0.22845,-0.067 1.19445,-0.078 7.37895,-0.066 l 7.1089,0.017 0.21796,0.1194 c 0.34274,0.1814 0.57129,0.4099 0.72699,0.7268 l 0.14525,0.2962 0.0146,7.5192 0.009,7.514 8.42804,-0.01 8.4226,-0.015 0.23896,-0.1084 c 0.32709,-0.1511 0.62314,-0.4316 0.77364,-0.7329 l 0.13,-0.249 0.018,-16.928 0.0129,-16.9289 -13.01172,-11.5301 c -7.15465,-6.3413 -13.08911,-11.592 -13.17731,-11.6701 l -0.16624,-0.1348 z"
         id="path28"
         style="fill:#0c2a48;fill-opacity:1;stroke-linejoin:miter" />
      <path
         d="m 382.29337,802.16547 6e-5,6.3e-4 7e-5,4.6e-4 -7e-5,-4.6e-4 -6e-5,-6.3e-4 6e-5,6.3e-4 7e-5,4.6e-4 q -7e-5,-4.6e-4 -1.3e-4,-10e-4"
         id="path30"
         style="fill:#76c1eb;fill-opacity:1;stroke-linejoin:miter" />
      <path
         d="m 737.66766,870.709 55.18004,0.008 55.1801,0.008 q -0.0175,120.69284 -0.0352,241.3855 -55.18016,-0.01 -110.36034,-0.015 0.0177,-120.6936 0.0354,-241.3872"
         id="path31"
         style="fill:#76c1eb;fill-opacity:1;stroke-linejoin:miter" />
      <path
         d="m 745.163,878.9342 32.4832,0.005 32.48326,0.005 q -8e-4,4.88818 -0.002,9.77644 -32.48315,-0.004 -64.9662,-0.008 7.5e-4,-4.88924 10e-4,-9.7784"
         id="path32"
         style="fill:#5da0e1;fill-opacity:1;stroke-linejoin:miter" />
      <path
         d="m 744.886,892.0165 41.4985,0.006 41.4988,0.006 q -7.3e-4,4.88824 -0.002,9.77649 -41.49864,-0.006 -82.9972,-0.0109 7e-4,-4.8893 10e-4,-9.7784"
         id="path33"
         style="fill:#5da0e1;fill-opacity:1;stroke-linejoin:miter" />
      <path
         d="m 744.74634,904.8233 35.6488,0.006 35.64911,0.006 q -7.5e-4,4.8882 -0.001,9.77635 -35.6491,-0.005 -71.29787,-0.009 7.4e-4,-4.88925 0.001,-9.77845"
         id="path34"
         style="fill:#5da0e1;fill-opacity:1;stroke-linejoin:miter" />
      <path
         d="m 744.474,918.0755 27.9449,0.005 27.94493,0.005 q -6.7e-4,4.88824 -10e-4,9.7764 -27.94504,-0.004 -55.88974,-0.007 7.4e-4,-4.8893 0.001,-9.7785"
         id="path35"
         style="fill:#5da0e1;fill-opacity:1;stroke-linejoin:miter" />
      <path
         d="m 744.39355,931.0829 32.48315,0.005 32.48335,0.005 q -6.5e-4,4.8882 -10e-4,9.77645 -32.48334,-0.004 -64.96654,-0.009 7e-4,-4.8891 10e-4,-9.7783"
         id="path36"
         style="fill:#65a1df;fill-opacity:1;stroke-linejoin:miter" />
      <path
         d="m 744.11664,944.1653 41.49866,0.006 41.4986,0.006 q -7e-4,4.8882 -10e-4,9.77645 -41.4986,-0.006 -82.9972,-0.0111 7e-4,-4.8891 0.001,-9.7783"
         id="path37"
         style="fill:#5da0e1;fill-opacity:1;stroke-linejoin:miter" />
      <path
         d="m 743.977,956.9722 35.64885,0.006 35.64905,0.006 q -8e-4,4.88824 -10e-4,9.77634 -35.64894,-0.005 -71.29784,-0.009 7e-4,-4.8891 0.001,-9.77835"
         id="path38"
         style="fill:#65a1df;fill-opacity:1;stroke-linejoin:miter" />
      <path
         d="m 743.7047,970.2244 27.94484,0.004 27.94506,0.005 q -8e-4,4.88827 -10e-4,9.7763 -27.94494,-0.003 -55.88977,-0.007 6.7e-4,-4.8892 10e-4,-9.7784"
         id="path39"
         style="fill:#5da0e1;fill-opacity:1;stroke-linejoin:miter" />
      <path
         d="m 1147.6776,1371.7642 -5.519,0.7839 q -39.2382,2.3696 -229.621,3.79 -191.7004,1.4195 -451.48062,1.1514 -247.9264,-0.375 -396.57187,-2.1946 -148.52555,-1.832 -120.453234,-4.3149 39.237718,-2.3696 229.620984,-3.79 191.70038,-1.4195 451.48064,-1.1512 247.9261,0.375 396.5717,2.1944 47.6277,0.5881 78.4613,1.2817 l 25.9149,0.7131 q 21.3561,0.7359 21.5962,1.5362"
         id="path40"
         style="fill:#0b1a29;fill-opacity:1;stroke-linejoin:miter" />
    </g>
    <path
       id="path1"
       style="display:inline;opacity:1;mix-blend-mode:color;fill:#3c71f7;fill-opacity:1;stroke-linejoin:miter"
       d="m 638.19577,791.69775 c -199.3727,0.0175 -363.43897,0.0848 -364.58984,0.17579 v 0.002 c -8.65436,0.64405 -15.14463,2.43848 -21.26758,5.98242 -9.11517,5.2464 -16.11444,13.11582 -20.21289,22.69141 -2.02609,4.78643 -3.03966,8.7912 -3.63867,14.36133 -0.27674,2.62359 -0.46593,33.92698 -0.47266,79.77734 l -0.01,75.49609 -11.83203,0.043 c -13.21182,-0.002 -20.11617,0.73463 -30.98047,3.35742 -43.64168,10.39775 -78.72465,42.98435 -92.541019,85.88675 -1.842348,5.6613 -3.916133,14.5913 -4.929688,20.9434 -1.151952,7.6419 -1.201712,29.3234 -0.0059,36.7812 2.483528,15.6066 6.488589,28.0349 13.345707,41.4785 3.08337,6.0312 8.97335,15.0996 13.2539,20.4414 1.61084,1.9795 3.22159,4.0054 3.58985,4.5117 0.5982,0.8284 0.18367,1.3348 -5.75586,7.3184 l -6.39844,6.3984 -2.07227,-2.0254 c -1.15064,-1.105 -2.53179,-2.2561 -3.08398,-2.5332 -1.242895,-0.6447 -3.819333,-0.6448 -5.384766,-0.047 -1.288769,0.4602 -128.500286,127.0814 -131.539063,130.8554 -1.473311,1.8422 -1.79468,2.6239 -1.794922,4.2813 -1.68e-4,1.1517 0.274355,2.624 0.642578,3.3144 0.735431,1.3079 14.170658,14.6866 18.464844,18.4981 -16.153637,0.4062 -29.336358,0.8331 -36.951172,1.293 -18.714858,1.6552 21.436191,3.0931 120.453125,4.3144 99.096886,1.2131 231.288166,1.9434 396.572266,2.1934 173.18664,0.1787 323.68033,-0.2041 451.48047,-1.1504 126.92171,-0.947 203.46231,-2.2113 229.62111,-3.791 l 5.5195,-0.7832 c -0.1601,-0.5336 -7.3603,-1.0465 -21.5977,-1.5371 l -25.914,-0.7129 c -13.0078,-0.2926 -32.1593,-0.5461 -49.6504,-0.8106 h 1.6699 l 3.9141,-1.334 c 7.3199,-2.4851 12.3381,-5.478 17.541,-10.4941 6.6295,-6.397 11.5098,-15.2346 14.043,-25.4531 1.1981,-4.8335 2.0273,-13.535 1.291,-13.627 -1.6109,-0.2759 -903.00177,-0.3162 -903.41603,-0.041 v 0 c -0.41437,0.2298 -0.461,1.5171 -0.27734,4.418 1.52115,21.1603 14.47926,38.9096 32.37305,44.8047 -13.97554,0.087 -30.53071,0.1112 -44.00196,0.2109 -82.838667,0.6181 -141.969653,1.3839 -181.8847625,2.2715 6.3667054,-5.6729 128.9519025,-128.4322 129.6308625,-129.8808 1.47343,-3.0374 0.73608,-5.985 -2.25586,-8.8399 -0.92051,-0.875 -1.6563,-1.8408 -1.65625,-2.1172 3e-5,-0.2302 2.76304,-3.2675 6.16992,-6.6269 5.75525,-5.7539 6.2612,-6.1233 7.08984,-5.5254 0.50618,0.3691 2.5325,1.9814 4.51172,3.5937 15.0052,12.1086 34.19845,21.0886 53.57813,25.0957 9.71288,1.9814 16.66391,2.627 28.31054,2.5372 l 10.5879,-0.092 0.27539,10.082 c 0.45791,15.4673 2.02209,21.221 8.28125,31.0723 2.34725,3.6836 8.70024,10.1758 12.47461,12.7539 3.5443,2.4402 10.40265,5.4802 15.32812,6.8613 l 4.60156,1.2891 367.8125,0.055 c 300.279,0.042 368.36511,-0.038 370.80471,-0.5449 14.6856,-2.9434 26.563,-11.7359 33.7461,-24.9472 2.0723,-3.8201 4.2826,-10.861 4.6972,-14.959 0.1846,-1.7487 0.3831,-100.537 0.4004,-219.5821 0.024,-167.70096 -0.1072,-216.95743 -0.5215,-219.12108 -4.1399,-20.39323 -19.8348,-35.31104 -40.2734,-38.21484 -4.0046,-0.59896 -54.41172,-0.65305 -367.16601,-0.65235 z M 208.89499,1023.3716 c 2.43988,-0.2298 15.19086,0.094 17.40039,0.4629 l 1.70313,0.3222 -0.0137,94.7832 c -0.0131,89.8133 -0.0603,94.7848 -0.79688,95.1075 -0.4604,0.1838 -5.80047,0.3212 -11.87695,0.3203 -8.65446,-0.048 -12.0598,-0.2318 -15.65039,-0.877 -22.92421,-4.1922 -42.94822,-15.6582 -57.40039,-32.9687 -28.76607,-34.346 -30.09319,-83.2799 -3.25,-119.1367 3.63741,-4.7869 12.42955,-13.855 16.9414,-17.3536 15.92933,-12.3802 31.72127,-18.5002 52.94336,-20.6601 z m 359.61914,304.5195 68.58985,0.012 68.58984,0.01 1.42773,1.1973 c 1.19644,0.967 1.42781,1.52 1.42774,3.1777 -3.6e-4,1.7031 -0.23107,2.1622 -1.33594,2.9434 l -1.33594,0.9687 -68.82031,-0.01 -68.77539,-0.014 -1.24219,-1.1953 c -1.65729,-1.7031 -1.61056,-3.7756 0.13867,-5.6641 z"
       transform="translate(96.376476,-444.61497)" />
  </g>
</svg>
