<?xml version="1.0" encoding="UTF-8" standalone="no"?>
<!-- Created with Inkscape (http://www.inkscape.org/) -->

<svg
   width="1876.7352"
   height="511.99997"
   viewBox="0 0 496.55284 135.46666"
   version="1.1"
   id="svg1"
   inkscape:version="1.3.2 (091e20e, 2023-11-25)"
   sodipodi:docname="dalbit-logo-text.svg"
   inkscape:export-filename="dalbit-logo-black.png"
   inkscape:export-xdpi="96"
   inkscape:export-ydpi="96"
   xml:space="preserve"
   xmlns:inkscape="http://www.inkscape.org/namespaces/inkscape"
   xmlns:sodipodi="http://sodipodi.sourceforge.net/DTD/sodipodi-0.dtd"
   xmlns="http://www.w3.org/2000/svg"
   xmlns:svg="http://www.w3.org/2000/svg"
   xmlns:rdf="http://www.w3.org/1999/02/22-rdf-syntax-ns#"
   xmlns:cc="http://creativecommons.org/ns#"
   xmlns:dc="http://purl.org/dc/elements/1.1/"><title
     id="title1">DalBit Logo</title><desc
     id="desc2">Das Logo zeigt eine stilisierte Mondsichel, die nach rechts geöffnet ist, mit den Buchstaben &quot;D&quot; und &quot;B&quot; in einer modernen, minimalistisch gestalteten Form innerhalb der Sichel.</desc><sodipodi:namedview
     id="namedview1"
     pagecolor="#ffffff"
     bordercolor="#111111"
     borderopacity="1"
     inkscape:showpageshadow="0"
     inkscape:pageopacity="0"
     inkscape:pagecheckerboard="1"
     inkscape:deskcolor="#d1d1d1"
     inkscape:document-units="px"
     inkscape:zoom="0.19427527"
     inkscape:cx="177.58308"
     inkscape:cy="-36.031349"
     inkscape:window-width="1920"
     inkscape:window-height="1027"
     inkscape:window-x="0"
     inkscape:window-y="25"
     inkscape:window-maximized="0"
     inkscape:current-layer="svg1"
     showguides="false" /><defs
     id="defs1" /><path
     style="display:inline;fill:#000000;stroke:none;stroke-width:0.999998"
     d="m 67.096829,135.46524 c -16.31813,0.11182 -32.46918,-6.4146 -44.60584,-17.38894 -9.06088,-8.19313 -15.8138004,-18.907878 -19.4398304,-30.685778 -4.36339,-14.17294 -4.13759,-29.81933 1.26451,-43.65593 3.81851,-9.78052 9.8754104,-18.6382 17.5244604,-25.79503 11.93408,-11.1661002 27.98105,-17.70434016 44.19282,-17.93246016 8.59443,-0.12094 17.18847,1.29890996 25.1703,4.55555996 4.93666,2.01419 9.967721,4.41747 13.902291,8.0016202 2.22456,2.02643 0.69721,6.71213 -2.57189,6.27469 -3.583421,-0.47949 -6.684841,-2.89186 -10.214781,-3.98412 -18.72839,-5.7950802 -40.25459,0.46569 -53.23578,15.1711 -8.16919,9.25426 -13.10818,21.37762 -13.75155,33.77325 -0.52872,10.18675 1.97851,20.398 6.9498,29.24097 3.62177,6.44244 8.5571,12.178168 14.40645,16.569808 12.82125,9.62606 30.15369,12.57069 45.49139,7.87188 15.267511,-4.67732 27.474131,-17.28077 32.794671,-32.381848 2.37752,-6.74799 3.31281,-13.89154 3.07143,-21.05444 -0.13929,-4.13361 -2.13472,-8.32871 -1.29834,-12.33481 0.54965,-2.63276 4.83872,-3.27103 6.01263,-0.64104 2.35367,5.27307 2.69203,11.4452 2.70689,17.22429 0.0467,18.15855 -8.04006,35.963768 -21.1597,48.348098 -11.09853,10.47647 -25.574801,17.17955 -40.680351,18.62161 -2.18424,0.20852 -4.34809,0.18658 -6.52958,0.20152 z m 18.91217,-35.482408 c -3.78316,-0.10135 -7.60232,0.313908 -11.36114,-0.13698 -1.37746,-1.27896 -0.99975,-4.62607 -0.99975,-6.96482 0.80304,-1.50342 4.2441,-1.33493 6.44191,-1.33493 5.45575,-0.19127 11.01604,0.25664 16.40602,-0.33685 6.012531,-1.29789 10.596121,-7.98852 8.545711,-14.11153 -1.73196,-5.15816 -7.211221,-8.01414 -12.407131,-7.57467 l -9.79551,-0.003 c -1.6938,-1.30984 -1.28002,-4.60091 -1.28002,-6.99709 0.79772,-1.51331 4.41158,-1.39848 6.7038,-1.39848 3.51175,0 7.35843,0.26808 10.03847,-2.4548 4.299401,-3.65385 4.445851,-11.10494 0.005,-14.71309 -2.21475,-2.58392 -5.64061,-2.95521 -8.81828,-2.72215 -4.86368,-0.0637 -9.72736,-0.12739 -14.59104,-0.19108 -1.81577,-1.23641 -1.29489,-4.24397 -1.29489,-6.42902 0.56738,-2.14897 4.52624,-1.96333 6.7776,-1.96333 5.1004,0 10.25713,-0.29189 15.25709,0.4676 6.787871,1.64631 12.478161,7.18267 13.957521,14.1663 1.17052,5.65511 -0.0992,12.01461 -4.34341,16.09039 -2.03232,1.76473 1.93842,2.69528 3.25118,4.02756 7.31041,6.70695 6.935,19.61017 -0.26952,26.23793 -4.06732,4.82179 -10.678541,6.720278 -16.779391,6.30591 -1.81477,0.0122 -3.62952,0.0242 -5.44429,0.0364 z m -34.6105,-0.77046 c -2.85228,0.59934 -2.71442,-3.16561 -2.71442,-5.16274 0,-3.86886 4.11724,-3.96411 6.09556,-6.06132 5.57698,-4.34489 8.50178,-11.75836 7.72456,-18.81912 -0.24977,-4.71257 0.3139,-9.55145 -0.46522,-14.1818 -1.58377,-6.61464 -6.60951,-11.90111 -12.50243,-14.8038 -1.22213,-1.59652 -0.90831,-4.24203 -0.68204,-6.19489 0.72675,-2.94225 4.31009,-1.12413 6.06242,-0.17963 9.93341,4.78324 16.76315,15.78233 16.01561,27.01926 -0.18645,5.51971 0.15185,11.11309 -0.3556,16.58775 -1.28653,6.32073 -4.70984,12.03383 -9.52741,16.22401 -2.73782,2.49277 -6.104,4.58408 -9.65103,5.57228 z"
     id="path1"
     sodipodi:nodetypes="ssssssssssssssssssssssscccccccccccccccccccccccccccccccccccc" /><metadata
     id="metadata1"><rdf:RDF><cc:Work
         rdf:about=""><dc:title>DalBit Logo</dc:title><dc:description>Das Logo zeigt eine stilisierte Mondsichel, die nach rechts geöffnet ist, mit den Buchstaben &quot;D&quot; und &quot;B&quot; in einer modernen, minimalistisch gestalteten Form innerhalb der Sichel.</dc:description></cc:Work></rdf:RDF></metadata><text
     xml:space="preserve"
     style="font-style:normal;font-variant:normal;font-weight:bold;font-stretch:normal;font-size:101.6px;font-family:'Helvetica Neue';-inkscape-font-specification:'Helvetica Neue Bold';fill:#13171f;stroke-width:26.4583;stroke-linecap:round;stroke-linejoin:round"
     x="166.55626"
     y="103.34412"
     id="text1"><tspan
       sodipodi:role="line"
       id="tspan1"
       style="font-style:normal;font-variant:normal;font-weight:bold;font-stretch:normal;font-size:101.6px;font-family:'Helvetica Neue';-inkscape-font-specification:'Helvetica Neue Bold';stroke-width:26.4583"
       x="166.55626"
       y="103.34412">DalBit</tspan></text></svg>
