<?xml version="1.0" encoding="UTF-8" standalone="no"?>
<svg
   viewBox="0 0 2100.0001 900"
   height="900"
   width="2100"
   xml:space="preserve"
   id="svg2"
   version="1.1"
   sodipodi:docname="rocket.svg"
   inkscape:version="1.3.2 (091e20e, 2023-11-25)"
   xmlns:inkscape="http://www.inkscape.org/namespaces/inkscape"
   xmlns:sodipodi="http://sodipodi.sourceforge.net/DTD/sodipodi-0.dtd"
   xmlns="http://www.w3.org/2000/svg"
   xmlns:svg="http://www.w3.org/2000/svg"
   xmlns:rdf="http://www.w3.org/1999/02/22-rdf-syntax-ns#"
   xmlns:cc="http://creativecommons.org/ns#"
   xmlns:dc="http://purl.org/dc/elements/1.1/"><sodipodi:namedview
     id="namedview1"
     pagecolor="#ffffff"
     bordercolor="#111111"
     borderopacity="1"
     inkscape:showpageshadow="0"
     inkscape:pageopacity="0"
     inkscape:pagecheckerboard="1"
     inkscape:deskcolor="#d1d1d1"
     inkscape:zoom="0.48137656"
     inkscape:cx="865.22701"
     inkscape:cy="675.14712"
     inkscape:window-width="1920"
     inkscape:window-height="971"
     inkscape:window-x="0"
     inkscape:window-y="25"
     inkscape:window-maximized="0"
     inkscape:current-layer="svg2" /><metadata
     id="metadata8"><rdf:RDF><cc:Work
         rdf:about=""><dc:format>image/svg+xml</dc:format><dc:type
           rdf:resource="http://purl.org/dc/dcmitype/StillImage" /></cc:Work></rdf:RDF></metadata><defs
     id="defs6"><clipPath
       id="clipPath20"
       clipPathUnits="userSpaceOnUse"><path
         id="path18"
         d="M 0,520 H 520 V 0 H 0 Z" /></clipPath><linearGradient
       id="f"
       x1="63.192665"
       x2="253.59383"
       y1="152.11909"
       y2="152.11909"
       gradientTransform="matrix(2.3073519,0,0,0.43339726,753.37262,38.48174)"
       gradientUnits="userSpaceOnUse"><stop
         stop-color="#5f411c"
         offset="0"
         id="stop3" /><stop
         stop-color="#454545"
         offset="1"
         id="stop4" /></linearGradient></defs><path
     id="path1"
     style="opacity:1;fill:#3c71f7;stroke-width:100;stroke-linecap:round;stroke-linejoin:round"
     inkscape:label="path1"
     d="M 1050 90 A 360 360 0 0 0 690 450 A 360 360 0 0 0 1050 810 A 360 360 0 0 0 1410 450 A 360 360 0 0 0 1050 90 z " /><path
     id="path965"
     style="fill:#ffffff;fill-opacity:1;fill-rule:nonzero;stroke:none;stroke-width:49.428;stroke-linecap:round;stroke-linejoin:round;stroke-miterlimit:4;stroke-dasharray:none;stroke-dashoffset:8.12598;stroke-opacity:1;paint-order:markers stroke fill"
     d="m 1049.6852,209.98783 v 0 a 6.7701218,6.7701218 0 0 0 -0.4044,0.11573 6.7701218,6.7701218 0 0 0 -0.845,0 6.7701218,6.7701218 0 0 0 -2.3295,0.90732 c 0,0 -1.4383,0.93131 -3.7056,2.5812 -0.2557,0.18534 -0.2175,0.14787 -0.4991,0.35561 -1.1834,0.87305 -2.5931,1.9569 -4.1927,3.2349 -0.1986,0.15861 -0.3609,0.28401 -0.5654,0.44896 -1.6022,1.29299 -3.3961,2.80741 -5.3195,4.49396 -0.3013,0.26408 -0.5743,0.49802 -0.8825,0.77184 -1.9243,1.70982 -3.9889,3.63385 -6.1497,5.72936 -0.3854,0.37355 -0.7511,0.72323 -1.1428,1.10919 -2.1709,2.13937 -4.4367,4.48716 -6.7695,7.01215 -0.437,0.47289 -0.8611,0.92972 -1.3026,1.41634 -2.3507,2.5912 -4.7563,5.38714 -7.1992,8.37089 -0.4539,0.55444 -0.899,1.10086 -1.3549,1.66896 -2.6726,3.33017 -5.3694,6.85148 -8.06651,10.65827 -0.0233,0.0333 -0.0467,0.0593 -0.07,0.0923 -0.0193,0.028 -0.0393,0.0587 -0.0587,0.0862 0,0.007 -0.007,0.008 -0.009,0.012 -0.7511,1.06252 -1.50175,2.14338 -2.25098,3.24343 a 6.7701218,6.7701218 0 0 0 -0.064,0.14981 c -22.49328,33.07149 -44.13244,83.39852 -44.13244,153.95285 0,19.55253 2.94561,41.80046 7.81199,67.04875 l -35.32386,56.56188 c -2.22379,3.56046 -3.40271,7.67466 -3.40291,11.87241 v 115.7229 c 0,10.10358 6.83821,19.01791 16.59531,21.6407 9.75703,2.62274 20.1405,-1.66281 25.20855,-10.40319 l 32.19838,-55.56591 a 6.7701218,6.7701218 0 0 0 1.79349,2.33693 c 10.23648,5.91003 24.14928,9.05039 38.96728,10.19298 v 11.77574 a 13.465474,13.465474 0 1 0 26.9282,0 v -11.77574 c 14.8179,-1.14266 28.7304,-4.28301 38.9667,-10.19298 a 6.7701218,6.7701218 0 0 0 1.8392,-2.25979 l 32.1544,55.48877 a 6.7701218,6.7701218 0 0 0 0,0.007 c 5.0691,8.73771 15.4513,13.02039 25.2067,10.39799 9.7554,-2.62253 16.5905,-11.53406 16.5951,-21.63577 V 551.88919 c 0,-4.19768 -1.1791,-8.31196 -3.4029,-11.87241 l -33.953,-54.36657 c 4.424,-26.38448 6.4411,-49.28644 6.4411,-69.24386 0,-70.4116 -21.5518,-120.67829 -43.9961,-153.75278 a 6.7701218,6.7701218 0 0 0 -0.1967,-0.34601 c -0.7584,-1.11346 -1.5182,-2.20719 -2.2785,-3.28224 -0.015,-0.0207 -0.029,-0.0427 -0.043,-0.0633 -0.016,-0.0233 -0.033,-0.0413 -0.049,-0.0647 -2.7096,-3.82559 -5.4189,-7.3627 -8.1037,-10.70727 -0.4432,-0.55223 -0.8762,-1.08339 -1.3175,-1.62269 -2.4537,-2.99802 -4.8699,-5.80636 -7.2308,-8.40836 -0.4329,-0.47709 -0.8489,-0.92485 -1.2775,-1.3888 -2.3407,-2.53406 -4.6138,-4.88939 -6.7915,-7.03523 -0.3851,-0.37935 -0.7444,-0.72297 -1.1233,-1.09025 -2.1676,-2.10238 -4.238,-4.03174 -6.1676,-5.74616 -0.3024,-0.26855 -0.5701,-0.49776 -0.8657,-0.75691 -1.9281,-1.69095 -3.7256,-3.2089 -5.3311,-4.50443 -0.2039,-0.16447 -0.3655,-0.28915 -0.5636,-0.44735 -1.5969,-1.27593 -3.0061,-2.35932 -4.1882,-3.23157 -0.2925,-0.21581 -0.2538,-0.1778 -0.5184,-0.36935 -2.2567,-1.64155 -3.691,-2.57106 -3.691,-2.57106 a 6.7701218,6.7701218 0 0 0 -3.1748,-0.90732 6.7701218,6.7701218 0 0 0 -0.4055,-0.116 z m 0,15.00102 c 0.037,0.0273 0.091,0.07 0.1295,0.098 1.6295,1.19532 3.7988,2.88021 6.3108,4.98072 0.2877,0.24128 0.6197,0.53949 0.9173,0.79297 2.4756,2.10451 5.2805,4.63317 8.3351,7.60879 0.4403,0.42995 0.8741,0.84764 1.3243,1.29626 1.0761,1.07046 2.1909,2.22345 3.3173,3.40178 0.8651,0.90651 1.7429,1.84556 2.6336,2.81647 1.0006,1.0894 2.0173,2.22919 3.0456,3.40125 0.9319,1.06352 1.8728,2.16151 2.8233,3.29356 1.1254,1.33908 2.2607,2.72568 3.4065,4.16255 0.8344,1.04685 1.6728,2.12344 2.5152,3.2225 0.3607,0.47063 0.7253,0.98238 1.0872,1.46267 -11.4614,1.95964 -23.5895,2.99409 -35.8451,3.01009 -12.2554,-0.0167 -24.3832,-1.05192 -35.8437,-3.01229 0.3695,-0.49035 0.7418,-1.01305 1.1101,-1.49321 0.8153,-1.06352 1.6273,-2.10717 2.4353,-3.12169 1.1698,-1.46841 2.3284,-2.88288 3.4769,-4.24935 0.9419,-1.12146 1.8742,-2.20945 2.7978,-3.26356 1.0317,-1.1764 2.0523,-2.31959 3.0563,-3.41278 0.8903,-0.97058 1.7677,-1.90943 2.6325,-2.81568 1.1252,-1.17719 2.2386,-2.32891 3.3137,-3.39851 0.4521,-0.45069 0.8877,-0.87011 1.3301,-1.30199 3.0498,-2.97109 5.8498,-5.49529 8.3224,-7.59772 0.303,-0.25815 0.6405,-0.56163 0.9333,-0.80711 2.5008,-2.09104 4.6589,-3.76713 6.2849,-4.96026 0.044,-0.0327 0.1063,-0.0817 0.1498,-0.11347 z m -44.3074,48.72308 c 14.0764,2.85822 29.0954,4.34309 44.2983,4.36343 a 6.7701218,6.7701218 0 0 0 0.017,0 c 15.2037,-0.0193 30.2243,-1.50268 44.3023,-4.36009 20.3369,31.14312 39.4647,77.38088 39.4647,142.68414 0,19.71361 -2.008,42.64931 -6.6463,69.55048 a 6.7701218,6.7701218 0 0 0 0.9293,4.73525 l 35.2837,56.49521 c 0.8809,1.41027 1.348,3.03736 1.3481,4.70024 v 115.72323 c -0.01,4.04388 -2.667,7.51412 -6.5725,8.56397 -3.9054,1.04992 -7.9483,-0.61777 -9.979,-4.11467 v -0.007 l -39.3056,-67.82892 a 6.7701218,6.7701218 0 0 0 -12.3035,1.32879 c -1.0039,3.13129 -2.0176,6.26479 -3.047,9.41788 -7.1629,3.48218 -18.1074,6.01311 -30.0174,7.14597 V 523.2028 a 13.465474,13.465474 0 0 0 -13.6658,-13.65344 13.465474,13.465474 0 0 0 -13.2624,13.65344 v 98.90424 c -11.7979,-1.12226 -22.6516,-3.61278 -29.8174,-7.0449 -0.8856,-3.3537 -1.709,-6.51713 -2.6542,-10.05444 a 6.7701218,6.7701218 0 0 0 -12.3966,-1.64609 l -39.8049,68.68804 c -2.03004,3.49871 -6.07403,5.16833 -9.98064,4.11821 -3.90679,-1.05019 -6.57074,-4.52236 -6.57254,-8.56757 v -115.7231 c 8e-5,-1.66288 0.46723,-3.28971 1.34807,-4.69998 a 6.7701218,6.7701218 0 0 0 0,-2.6e-4 6.7701218,6.7701218 0 0 0 0,-3.4e-4 6.7701218,6.7701218 0 0 0 0,-2.6e-4 6.7701218,6.7701218 0 0 0 0,-2.7e-4 6.7701218,6.7701218 0 0 0 0,-2.7e-4 6.7701218,6.7701218 0 0 0 0,-3.3e-4 l 36.71042,-58.77753 a 6.7701218,6.7701218 0 0 0 0.89937,-4.89118 c -5.09653,-25.92306 -8.04148,-48.24973 -8.04148,-67.11216 0,-65.30553 19.12898,-111.54429 39.4666,-142.68748 z m 44.3069,53.53667 c -24.9725,0 -45.3607,20.39017 -45.3607,45.36265 0,24.97247 20.3882,45.36238 45.3607,45.36238 24.9725,0 45.3626,-20.38991 45.3626,-45.36238 0,-24.97248 -20.3901,-45.36265 -45.3626,-45.36265 z m 0,13.53942 c 17.6554,0 31.823,14.16773 31.823,31.82323 0,17.6555 -14.1676,31.82295 -31.823,31.82295 -17.6555,0 -31.823,-14.16745 -31.823,-31.82295 0,-17.6555 14.1675,-31.82323 31.823,-31.82323 z m 191.0594,85.86338 -5.5881,20.74159 -20.7415,5.58809 20.7415,5.58802 5.5881,20.74159 5.5881,-20.74159 20.7415,-5.58802 -20.7415,-5.58809 z m -374.92665,44.3336 -6.98046,25.91072 -25.91069,6.98042 25.91069,6.98069 6.98046,25.91072 6.98068,-25.91072 25.91071,-6.98069 -25.91071,-6.98042 z m 326.94465,51.057 -3.653,13.55929 -13.5593,3.65299 13.5593,3.65278 3.653,13.55922 3.6528,-13.55922 13.5593,-3.65278 -13.5593,-3.65299 z" /></svg>
