<?xml version="1.0" encoding="UTF-8" standalone="no"?>
<svg
   viewBox="0 0 2100.0001 900"
   height="900"
   width="2100"
   xml:space="preserve"
   id="svg2"
   version="1.1"
   sodipodi:docname="ruler.svg"
   inkscape:version="1.3.2 (091e20e, 2023-11-25)"
   xmlns:inkscape="http://www.inkscape.org/namespaces/inkscape"
   xmlns:sodipodi="http://sodipodi.sourceforge.net/DTD/sodipodi-0.dtd"
   xmlns="http://www.w3.org/2000/svg"
   xmlns:svg="http://www.w3.org/2000/svg"
   xmlns:rdf="http://www.w3.org/1999/02/22-rdf-syntax-ns#"
   xmlns:cc="http://creativecommons.org/ns#"
   xmlns:dc="http://purl.org/dc/elements/1.1/"><sodipodi:namedview
     id="namedview1"
     pagecolor="#ffffff"
     bordercolor="#111111"
     borderopacity="1"
     inkscape:showpageshadow="0"
     inkscape:pageopacity="0"
     inkscape:pagecheckerboard="1"
     inkscape:deskcolor="#d1d1d1"
     inkscape:zoom="0.24068828"
     inkscape:cx="924.43222"
     inkscape:cy="1271.354"
     inkscape:window-width="1920"
     inkscape:window-height="971"
     inkscape:window-x="0"
     inkscape:window-y="25"
     inkscape:window-maximized="0"
     inkscape:current-layer="svg2" /><metadata
     id="metadata8"><rdf:RDF><cc:Work
         rdf:about=""><dc:format>image/svg+xml</dc:format><dc:type
           rdf:resource="http://purl.org/dc/dcmitype/StillImage" /></cc:Work></rdf:RDF></metadata><defs
     id="defs6"><clipPath
       id="clipPath20"
       clipPathUnits="userSpaceOnUse"><path
         id="path18"
         d="M 0,520 H 520 V 0 H 0 Z" /></clipPath><linearGradient
       id="f"
       x1="63.192665"
       x2="253.59383"
       y1="152.11909"
       y2="152.11909"
       gradientTransform="matrix(2.3073519,0,0,0.43339726,753.37262,38.48174)"
       gradientUnits="userSpaceOnUse"><stop
         stop-color="#5f411c"
         offset="0"
         id="stop3" /><stop
         stop-color="#454545"
         offset="1"
         id="stop4" /></linearGradient></defs><path
     id="path1"
     style="opacity:1;fill:#3c71f7;stroke-width:100;stroke-linecap:round;stroke-linejoin:round"
     inkscape:label="path1"
     d="M 1050 90 A 360 360 0 0 0 690 450 A 360 360 0 0 0 1050 810 A 360 360 0 0 0 1410 450 A 360 360 0 0 0 1050 90 z M 841.98047 331.18945 L 842.17188 331.25195 C 843.53033 331.21329 844.91171 331.34649 846.26562 331.7832 L 1284.4121 473.10547 C 1290.8894 475.19467 1294.5132 482.26676 1292.4238 488.74414 L 1269.373 560.20898 C 1267.2837 566.68633 1260.2111 570.3078 1253.7344 568.21875 L 815.58594 426.89453 C 809.10925 424.8055 805.48722 417.73424 807.57617 411.25781 L 830.62891 339.79102 C 832.19564 334.93361 836.55066 331.69611 841.37109 331.24609 L 841.37305 331.24609 L 841.98047 331.18945 z M 841.98047 331.18945 L 841.9668 331.25 C 841.9698 331.24988 841.97161 331.25012 841.97461 331.25 L 841.98047 331.18945 z M 841.95508 331.31055 L 841.32227 334.3125 C 841.43464 334.2979 841.53734 334.24302 841.65039 334.23242 L 841.9668 331.31055 L 841.95508 331.31055 z M 844.54102 347.68359 L 823.47266 412.98438 L 1255.4531 552.31836 L 1276.5137 487.01758 L 1225.8652 470.67969 L 1221.2617 485.05078 L 1221.252 485.07031 C 1220.3763 487.67894 1218.1782 489.63952 1215.4863 490.21094 C 1209.8202 491.41099 1204.7334 485.8624 1206.4219 480.32227 L 1206.4316 480.30078 L 1211.0449 465.90039 L 1179.8691 455.84375 L 1175.209 470.39258 L 1175.1992 470.41992 C 1174.4512 472.60632 1172.8575 474.29165 1171.0195 475.08789 C 1169.1815 475.88413 1167.2073 475.8777 1165.4512 475.31445 C 1163.6952 474.75121 1162.0847 473.6074 1161.0527 471.89062 C 1160.0207 470.17387 1159.7058 467.87762 1160.3691 465.66406 L 1160.3789 465.63672 L 1165.0488 451.06445 L 1133.9434 441.03125 L 1129.334 455.42188 L 1129.3242 455.44336 C 1127.4774 460.93149 1120.1144 462.49085 1116.2012 458.22266 C 1114.3403 456.19313 1113.6906 453.31792 1114.4941 450.68555 L 1114.5039 450.66602 L 1119.125 436.25 L 1087.8965 426.17773 L 1083.2949 440.54297 L 1083.2852 440.56445 C 1081.44 446.0536 1074.0783 447.61544 1070.1641 443.34766 L 1070.1641 443.3457 C 1068.3049 441.31702 1067.6549 438.44396 1068.457 435.8125 L 1068.4668 435.79297 L 1073.0801 421.39648 L 1041.873 411.33008 L 1037.3984 425.29883 L 1037.3887 425.31836 C 1035.5435 430.80749 1028.1798 432.36937 1024.2656 428.10156 C 1022.4064 426.07286 1021.7545 423.19982 1022.5566 420.56836 L 1022.5664 420.54688 L 1027.0508 406.55078 L 995.9043 396.50586 L 991.34375 410.73633 L 991.33789 410.75586 C 990.46234 413.36456 988.26394 415.32493 985.57227 415.89648 L 985.57031 415.89648 C 979.90417 417.09668 974.8172 411.54609 976.50586 406.00586 L 976.51172 405.98633 L 981.08203 391.72461 L 949.97656 381.69141 L 945.47656 395.74219 L 945.46875 395.76367 C 943.62359 401.25286 936.25996 402.81276 932.3457 398.54492 C 930.48708 396.51643 929.83646 393.64356 930.63867 391.01172 L 930.64453 390.99219 L 935.1543 376.91016 L 903.98633 366.85742 L 899.44336 381.0332 L 899.4375 381.05273 C 898.56191 383.66145 896.36361 385.62185 893.67188 386.19336 L 893.66992 386.19336 L 893.66992 386.19531 C 888.0038 387.39546 882.91684 381.84489 884.60547 376.30469 L 884.61133 376.2832 L 889.16406 362.07617 C 874.28955 357.27797 859.41561 352.48084 844.54102 347.68359 z " /></svg>
