<?xml version="1.0" encoding="UTF-8" standalone="no"?>
<svg
   viewBox="0 0 2100.0001 900"
   height="900"
   width="2100"
   xml:space="preserve"
   id="svg2"
   version="1.1"
   sodipodi:docname="bulb.svg"
   inkscape:version="1.3.2 (091e20e, 2023-11-25)"
   xmlns:inkscape="http://www.inkscape.org/namespaces/inkscape"
   xmlns:sodipodi="http://sodipodi.sourceforge.net/DTD/sodipodi-0.dtd"
   xmlns="http://www.w3.org/2000/svg"
   xmlns:svg="http://www.w3.org/2000/svg"
   xmlns:rdf="http://www.w3.org/1999/02/22-rdf-syntax-ns#"
   xmlns:cc="http://creativecommons.org/ns#"
   xmlns:dc="http://purl.org/dc/elements/1.1/"><sodipodi:namedview
     id="namedview1"
     pagecolor="#ffffff"
     bordercolor="#111111"
     borderopacity="1"
     inkscape:showpageshadow="0"
     inkscape:pageopacity="0"
     inkscape:pagecheckerboard="1"
     inkscape:deskcolor="#d1d1d1"
     inkscape:zoom="0.34038463"
     inkscape:cx="900.45194"
     inkscape:cy="672.76833"
     inkscape:window-width="1920"
     inkscape:window-height="999"
     inkscape:window-x="0"
     inkscape:window-y="25"
     inkscape:window-maximized="0"
     inkscape:current-layer="svg2" /><metadata
     id="metadata8"><rdf:RDF><cc:Work
         rdf:about=""><dc:format>image/svg+xml</dc:format><dc:type
           rdf:resource="http://purl.org/dc/dcmitype/StillImage" /></cc:Work></rdf:RDF></metadata><defs
     id="defs6"><clipPath
       id="clipPath20"
       clipPathUnits="userSpaceOnUse"><path
         id="path18"
         d="M 0,520 H 520 V 0 H 0 Z" /></clipPath></defs><path
     id="path1"
     style="opacity:1;fill:#3c71f7;stroke-width:100;stroke-linecap:round;stroke-linejoin:round"
     d="M 1050 90 A 360 360 0 0 0 690 450 A 360 360 0 0 0 1050 810 A 360 360 0 0 0 1410 450 A 360 360 0 0 0 1050 90 z M 1050 209.98828 C 1133.1903 209.98828 1200.8711 277.669 1200.8711 360.85742 C 1200.8711 407.08327 1180.3123 449.76718 1144.3223 478.58789 L 1144.3223 497.81055 C 1144.3223 513.30837 1136.2136 526.93847 1124.0215 534.71094 C 1127.461 538.93265 1129.5312 544.3123 1129.5312 550.16992 C 1129.5312 556.56091 1127.0533 562.36956 1123.0352 566.73828 C 1127.0533 571.107 1129.5312 576.91565 1129.5312 583.30664 C 1129.5312 592.37578 1124.5695 600.29271 1117.2305 604.53516 C 1119.2019 608.06518 1120.334 612.12371 1120.334 616.44531 C 1120.334 629.94725 1109.3695 640.92897 1095.877 640.96289 C 1096.889 643.65046 1097.4688 646.54775 1097.4688 649.58398 C 1097.4688 676.41069 1081.5007 690.01172 1050 690.01172 C 1028.3449 690.01172 1002.5293 682.99958 1002.5293 649.58398 C 1002.5293 646.54775 1003.1091 643.65046 1004.123 640.96289 C 990.63054 640.92897 979.66406 629.94725 979.66406 616.44531 C 979.66406 612.12371 980.79619 608.06518 982.76758 604.53516 C 975.42859 600.29271 970.4668 592.37578 970.4668 583.30664 C 970.4668 576.91565 972.9448 571.107 976.96484 566.73828 C 972.9448 562.36956 970.4668 556.56091 970.4668 550.16992 C 970.4668 544.31418 972.537 538.93265 975.97656 534.71094 C 963.78449 526.94035 955.67578 513.30837 955.67578 497.81055 L 955.67578 478.58789 C 919.68759 449.76718 899.12891 407.08327 899.12891 360.85742 C 899.12891 277.669 966.80969 209.98828 1050 209.98828 z M 1050 225.89453 C 975.58105 225.89453 915.03516 286.43847 915.03516 360.85742 C 915.03516 403.39681 934.5018 442.5848 968.43945 468.37305 C 970.42026 469.87703 971.58008 472.22112 971.58008 474.70703 L 971.58008 497.81055 C 971.58008 513.15948 984.06904 525.64648 999.41797 525.64648 L 1022.9414 525.64648 L 1022.9414 402.07617 C 1010.1104 399.64869 997.73725 394.51132 997.22461 383.74219 C 996.94379 377.82614 999.33645 374.25325 1001.3945 372.29883 C 1005.4108 368.48421 1011.8969 366.99464 1020.6758 367.86914 C 1027.423 368.54198 1032.5117 374.19715 1032.5117 381.02539 L 1032.5117 393.75 C 1038.3712 394.41341 1044.4677 394.696 1049.9258 394.60742 C 1049.9409 394.60742 1049.9556 394.60554 1049.9707 394.60742 C 1050.0027 394.60554 1050.0383 394.60742 1050.0723 394.60742 C 1055.5303 394.69977 1061.6268 394.4153 1067.4863 393.75 L 1067.4863 381.02539 C 1067.4863 374.19715 1072.5751 368.54198 1079.3223 367.86914 C 1088.103 367.0003 1094.5872 368.48421 1098.6035 372.29883 C 1100.6616 374.25325 1103.0543 377.82614 1102.7734 383.74219 C 1102.2589 394.50943 1089.8839 399.64869 1077.0566 402.07617 L 1077.0566 525.64648 L 1100.5801 525.64648 C 1115.929 525.64648 1128.416 513.15948 1128.416 497.81055 L 1128.416 474.70703 C 1128.416 472.22112 1129.5777 469.87703 1131.5566 468.37305 C 1165.4981 442.5848 1184.9648 403.39681 1184.9648 360.85742 C 1184.9648 286.43847 1124.419 225.89453 1050 225.89453 z M 1016.0547 377.19727 C 1012.2476 377.19727 1009.3923 377.90399 1007.9863 379.24023 C 1007.4134 379.78303 1006.6664 380.79359 1006.7852 383.28516 C 1006.9793 387.3919 1013.8628 390.37864 1022.9414 392.25391 L 1022.9414 381.02539 C 1022.9414 379.13693 1021.5584 377.57539 1019.7246 377.39258 C 1018.4242 377.26253 1017.1968 377.19727 1016.0547 377.19727 z M 1083.9453 377.19727 C 1082.8013 377.19727 1081.5738 377.26253 1080.2715 377.39258 C 1078.4396 377.57539 1077.0566 379.13693 1077.0566 381.02539 L 1077.0566 392.25391 C 1086.1371 390.38052 1093.0169 387.39379 1093.2129 383.28516 C 1093.3316 380.79359 1092.5847 379.78303 1092.0117 379.24023 C 1090.6076 377.90399 1087.7505 377.19727 1083.9453 377.19727 z M 1032.5117 403.43945 L 1032.5117 525.64648 L 1067.4863 525.64648 L 1067.4863 403.43945 C 1059.7949 404.21972 1053.053 404.23057 1049.9941 404.17969 C 1046.9296 404.22869 1040.1937 404.21783 1032.5117 403.43945 z M 994.99023 541.55273 C 990.23893 541.55273 986.37305 545.41861 986.37305 550.16992 C 986.37305 554.92123 990.23893 558.78516 994.99023 558.78516 L 1105.0098 558.78516 C 1109.7611 558.78516 1113.625 554.92123 1113.625 550.16992 C 1113.625 545.41861 1109.7611 541.55273 1105.0098 541.55273 L 1100.5801 541.55273 L 999.41797 541.55273 L 994.99023 541.55273 z M 994.99023 574.69141 C 990.23893 574.69141 986.37305 578.55533 986.37305 583.30664 C 986.37305 588.05795 990.23893 591.92383 994.99023 591.92383 L 1004.1855 591.92383 L 1095.8145 591.92383 L 1105.0098 591.92383 C 1109.7611 591.92383 1113.625 588.05795 1113.625 583.30664 C 1113.625 578.55533 1109.7611 574.69141 1105.0098 574.69141 L 994.99023 574.69141 z M 1004.1855 607.83008 C 999.43424 607.83008 995.56836 611.694 995.56836 616.44531 C 995.56836 621.19662 999.43424 625.06055 1004.1855 625.06055 L 1027.0508 625.06055 L 1072.9473 625.06055 L 1095.8145 625.06055 C 1100.5658 625.06055 1104.4297 621.19662 1104.4297 616.44531 C 1104.4297 611.694 1100.5658 607.83008 1095.8145 607.83008 L 1004.1855 607.83008 z M 1027.0508 640.9668 C 1022.2995 640.9668 1018.4336 644.83268 1018.4336 649.58398 C 1018.4336 657.54304 1018.4352 674.10547 1050 674.10547 C 1081.5648 674.10547 1081.5645 658.7549 1081.5645 649.58398 C 1081.5645 644.83268 1077.6986 640.9668 1072.9473 640.9668 L 1027.0508 640.9668 z " /></svg>
