<?xml version="1.0" encoding="UTF-8" standalone="no"?>
<svg
   version="1.1"
   width="1280"
   height="720"
   viewBox="-213 302 1280 720"
   id="svg30"
   sodipodi:docname="redesign.svg"
   inkscape:version="1.3.2 (091e20e, 2023-11-25)"
   xmlns:inkscape="http://www.inkscape.org/namespaces/inkscape"
   xmlns:sodipodi="http://sodipodi.sourceforge.net/DTD/sodipodi-0.dtd"
   xmlns="http://www.w3.org/2000/svg"
   xmlns:svg="http://www.w3.org/2000/svg">
  <defs
     id="defs30" />
  <sodipodi:namedview
     id="namedview30"
     pagecolor="#ffffff"
     bordercolor="#111111"
     borderopacity="1"
     inkscape:showpageshadow="0"
     inkscape:pageopacity="0"
     inkscape:pagecheckerboard="1"
     inkscape:deskcolor="#d1d1d1"
     inkscape:zoom="0.50499963"
     inkscape:cx="634.65393"
     inkscape:cy="271.28733"
     inkscape:window-width="1920"
     inkscape:window-height="971"
     inkscape:window-x="0"
     inkscape:window-y="25"
     inkscape:window-maximized="0"
     inkscape:current-layer="svg30" />
  <g
     id="g31"
     transform="translate(66.622585,-146.72153)">
    <g
       id="g56"
       style="display:inline;opacity:0.667">
      <path
         d="m 835.64044,1032.0381 -4.3385,1.4524 q -30.84524,4.3885 -180.50544,7.02 -150.69585,2.6291 -354.9091,2.1323 -194.89521,-0.6944 -311.745554,-4.0649 -37.440096,-1.0895 -61.678406,-2.3742 l -20.371704,-1.3205 q -16.788076,-1.3632 -16.976836,-2.8451 5.09637,-4.548 139.201232,-7.5679 134.104888,-3.0199 336.061568,-3.1346 201.9566,0.1147 336.06145,3.1346 134.10495,3.0199 139.20129,7.5679"
         id="path2"
         style="opacity:1;fill:#000000;fill-opacity:0.501961;stroke-linejoin:miter" />
      <path
         d="m 494.29352,887.8828 57.19518,2.6e-4 57.19544,4.8e-4 q 0,72.24109 0,144.48196 -57.19544,0 -114.39074,5e-4 1.2e-4,-72.2416 1.2e-4,-144.4832 z"
         id="path3"
         style="opacity:1;fill:#000000;fill-opacity:1;stroke-linejoin:miter" />
      <path
         d="m 285.73358,574.7213 266.59229,5e-4 266.59243,5e-4 q 0,173.35827 0,346.7164 -266.59243,0 -533.1849,2.6e-4 6e-5,-173.35886 1.8e-4,-346.71766 z"
         id="path4"
         style="opacity:1;fill:#000000;fill-opacity:1;stroke-linejoin:miter" />
      <path
         d="m 299.2635,590.36926 253.06237,2.4e-4 253.0625,7.4e-4 q -1.3e-4,156.7688 -1.3e-4,313.53786 -253.06237,0 -506.12487,4.7e-4 1.3e-4,-156.76977 1.3e-4,-313.53931 z"
         id="path5"
         style="opacity:1;fill:#ffffff;fill-opacity:1;stroke-linejoin:miter" />
      <path
         d="m 412.10657,1016.5417 139.38213,10e-4 139.3822,5e-4 q 0,11.0901 0,22.1797 -139.3822,4e-4 -278.76445,9e-4 0,-11.0908 1.2e-4,-22.1821 z"
         id="path6"
         style="opacity:1;fill:#000000;fill-opacity:1;stroke-linejoin:miter" />
      <path
         d="m 338.39368,779.0301 101.41572,7e-4 v 14.505 l -101.41575,6.4e-4 z m 0,0 101.41572,7e-4 v 14.505 l -101.41575,6.4e-4 z m 0,0 101.41572,7e-4 v 14.505 l -101.41575,6.4e-4 z m 0,0 101.41572,7e-4 v 14.505 l -101.41575,6.4e-4 z"
         id="path8"
         style="opacity:1;fill:#e6e6e6;fill-opacity:1;stroke-linejoin:miter" />
      <path
         d="m 338.39362,807.9181 77.32183,7e-4 v 14.5049 l -77.32183,7.4e-4 z m 0,0 77.32183,7e-4 v 14.5049 l -77.32183,7.4e-4 z m 0,0 77.32183,7e-4 v 14.5049 l -77.32183,7.4e-4 z m 0,0 77.32183,7e-4 v 14.5049 l -77.32183,7.4e-4 z"
         id="path9"
         style="opacity:1;fill:#e6e6e6;fill-opacity:1;stroke-linejoin:miter" />
      <path
         d="m 338.39362,832.1354 101.41571,4.6e-4 v 14.50489 l -101.41571,4.9e-4 z m 0,0 101.41571,4.6e-4 v 14.50489 l -101.41571,4.9e-4 z m 0,0 101.41571,4.6e-4 v 14.50489 l -101.41571,4.9e-4 z m 0,0 101.41571,4.6e-4 v 14.50489 l -101.41571,4.9e-4 z"
         id="path10"
         style="opacity:1;fill:#e6e6e6;fill-opacity:1;stroke-linejoin:miter" />
      <path
         d="m 338.39362,861.1461 101.41571,5e-4 v 9.71094 l -101.41571,4.9e-4 z m 0,0 101.41571,5e-4 v 9.71094 l -101.41571,4.9e-4 z m 0,0 101.41571,5e-4 v 9.71094 l -101.41571,4.9e-4 z m 0,0 101.41571,5e-4 v 9.71094 l -101.41571,4.9e-4 z"
         id="path11"
         style="opacity:1;fill:#e6e6e6;fill-opacity:1;stroke-linejoin:miter" />
      <path
         d="m 454.1919,807.9181 77.32183,7e-4 v 14.5049 l -77.32183,7.4e-4 z m 0,0 77.32183,7e-4 v 14.5049 l -77.32183,7.4e-4 z m 0,0 77.32183,7e-4 v 14.5049 l -77.32183,7.4e-4 z m 0,0 77.32183,7e-4 v 14.5049 l -77.32183,7.4e-4 z"
         id="path12"
         style="opacity:1;fill:#e6e6e6;fill-opacity:1;stroke-linejoin:miter" />
      <path
         d="m 454.1919,832.1354 101.4157,4.6e-4 v 14.50489 l -101.4157,4.9e-4 z m 0,0 101.4157,4.6e-4 v 14.50489 l -101.4157,4.9e-4 z m 0,0 101.4157,4.6e-4 v 14.50489 l -101.4157,4.9e-4 z m 0,0 101.4157,4.6e-4 v 14.50489 l -101.4157,4.9e-4 z"
         id="path13"
         style="opacity:1;fill:#e6e6e6;fill-opacity:1;stroke-linejoin:miter" />
      <path
         d="m 454.1919,861.1461 101.4157,5e-4 v 9.71094 l -101.4157,4.9e-4 z m 0,0 101.4157,5e-4 v 9.71094 l -101.4157,4.9e-4 z m 0,0 101.4157,5e-4 v 9.71094 l -101.4157,4.9e-4 z m 0,0 101.4157,5e-4 v 9.71094 l -101.4157,4.9e-4 z"
         id="path14"
         style="opacity:1;fill:#e6e6e6;fill-opacity:1;stroke-linejoin:miter" />
      <path
         d="m 739.3044,668.1185 c -4.0043,0 -8.4276,-3.27634 -8.4276,-7.281 v -69.16746 l 73.95456,76.44846 -65.52696,7.6e-4 z"
         id="path15"
         style="opacity:1;fill:#ffffff;fill-opacity:1;stroke-linejoin:miter" />
      <path
         d="m 610.7259,744.5665 160.177,5e-4 v 7.2804 l -160.177,5e-4 z m 0,0 160.177,5e-4 v 7.2804 l -160.177,5e-4 z m 0,0 160.177,5e-4 v 7.2804 l -160.177,5e-4 z m 0,0 160.177,5e-4 v 7.2804 l -160.177,5e-4 z"
         id="path16"
         style="opacity:1;fill:#e6e6e6;fill-opacity:1;stroke-linejoin:miter" />
      <path
         d="m 610.7259,759.1279 131.05407,0.001 v 3.63953 l -131.05407,7.4e-4 z m 0,0 131.05407,0.001 v 3.63953 l -131.05407,7.4e-4 z m 0,0 131.05407,0.001 v 3.63953 l -131.05407,7.4e-4 z m 0,0 131.05407,0.001 v 3.63953 l -131.05407,7.4e-4 z"
         id="path17"
         style="opacity:1;fill:#b3b3b3;fill-opacity:1;stroke-linejoin:miter" />
      <path
         d="m 650.77026,839.21643 116.49224,9.7e-4 v 3.63953 l -116.49224,7.4e-4 z m 0,0 116.49224,9.7e-4 v 3.63953 l -116.49224,7.4e-4 z m 0,0 116.49224,9.7e-4 v 3.63953 l -116.49224,7.4e-4 z m 0,0 116.49224,9.7e-4 v 3.63953 l -116.49224,7.4e-4 z"
         id="path18"
         style="opacity:1;fill:#b3b3b3;fill-opacity:1;stroke-linejoin:miter" />
      <path
         d="m 650.77026,850.1377 116.49224,7e-4 v 3.64004 l -116.49224,4.9e-4 z m 0,0 116.49224,7e-4 v 3.64004 l -116.49224,4.9e-4 z m 0,0 116.49224,7e-4 v 3.64004 l -116.49224,4.9e-4 z m 0,0 116.49224,7e-4 v 3.64004 l -116.49224,4.9e-4 z"
         id="path19"
         style="opacity:1;fill:#b3b3b3;fill-opacity:1;stroke-linejoin:miter" />
      <path
         d="m 650.77026,871.9801 116.49224,7.3e-4 v 3.63977 l -116.49224,7.4e-4 z m 0,0 116.49224,7.3e-4 v 3.63977 l -116.49224,7.4e-4 z m 0,0 116.49224,7.3e-4 v 3.63977 l -116.49224,7.4e-4 z m 0,0 116.49224,7.3e-4 v 3.63977 l -116.49224,7.4e-4 z"
         id="path20"
         style="opacity:1;fill:#b3b3b3;fill-opacity:1;stroke-linejoin:miter" />
      <path
         d="m 650.77026,882.90137 116.49224,6.3e-4 v 3.63975 l -116.49224,7.5e-4 z m 0,0 116.49224,6.3e-4 v 3.63975 l -116.49224,7.5e-4 z m 0,0 116.49224,6.3e-4 v 3.63975 l -116.49224,7.5e-4 z m 0,0 116.49224,6.3e-4 v 3.63975 l -116.49224,7.5e-4 z"
         id="path21"
         style="opacity:1;fill:#b3b3b3;fill-opacity:1;stroke-linejoin:miter" />
      <path
         d="m 610.7259,770.0492 152.89623,7e-4 v 3.6398 l -152.89623,5e-4 z m 0,0 152.89623,7e-4 v 3.6398 l -152.89623,5e-4 z m 0,0 152.89623,7e-4 v 3.6398 l -152.89623,5e-4 z m 0,0 152.89623,7e-4 v 3.6398 l -152.89623,5e-4 z"
         id="path22"
         style="opacity:1;fill:#b3b3b3;fill-opacity:1;stroke-linejoin:miter" />
      <path
         d="m 610.7259,780.97034 87.36925,7.3e-4 v 3.63977 l -87.36925,7.6e-4 z m 0,0 87.36925,7.3e-4 v 3.63977 l -87.36925,7.6e-4 z m 0,0 87.36925,7.3e-4 v 3.63977 l -87.36925,7.6e-4 z m 0,0 87.36925,7.3e-4 v 3.63977 l -87.36925,7.6e-4 z"
         id="path23"
         style="opacity:1;fill:#b3b3b3;fill-opacity:1;stroke-linejoin:miter" />
      <path
         d="m 590.3138,610.8165 93.4757,7.6e-4 93.4756,2.4e-4 q 0,49.9237 0,99.8473 -93.4756,5e-4 -186.9513,7e-4 0,-49.9243 0,-99.849"
         id="path24"
         style="opacity:1;fill:#929fa8;fill-opacity:1;stroke-linejoin:miter" />
      <path
         d="m 426.94434,601.2085 -3.54894,20.2164 0.0139,0.0136 c -4.33838,0.7087 -8.53583,1.84495 -12.54486,3.358 v -0.0135 l -13.17267,-15.73916 -12.38104,7.153 7.03003,19.27427 0.0272,0.0135 c -3.35652,2.75527 -6.43304,5.8424 -9.18677,9.2006 l -0.0135,-0.041 -19.27436,-7.03003 -7.15288,12.38096 15.73878,13.1868 c -1.51045,4.00597 -2.63655,8.19676 -3.34413,12.53136 l -0.014,-0.0136 -20.21618,3.5491 v 14.3055 l 20.21625,3.5492 0.014,-0.0135 c 0.7077,4.33413 1.83373,8.52526 3.34423,12.53137 l -15.73888,13.18606 7.15283,12.3811 19.27441,-7.03005 0.0135,-0.0412 c 2.75373,3.3577 5.83025,6.4452 9.18677,9.20045 l -0.0272,0.0136 -7.03003,19.27456 12.38097,7.15294 13.17268,-15.739 v -0.014 c 4.00897,1.51318 8.20648,2.64929 12.54486,3.35828 l -0.014,0.0134 3.54908,20.21644 14.29216,5e-4 3.54902,-20.2168 -0.0136,-0.0136 c 4.33716,-0.70664 8.53577,-1.83364 12.54486,-3.34414 l 13.1861,15.7389 12.38104,-7.15294 -7.04364,-19.27456 c 3.34907,-2.7479 6.42377,-5.8249 9.1731,-9.17295 l 19.28797,7.03015 7.13927,-12.3812 -15.72522,-13.1864 c 1.51093,-4.00613 2.65015,-8.1961 3.35767,-12.53103 l 20.21661,-3.53527 1.3e-4,-14.3057 -20.21668,-3.5492 c -0.70808,-4.3302 -1.84858,-8.51535 -3.35778,-12.5174 l 15.72527,-13.1867 -7.13922,-12.38095 -19.28802,7.03005 c -2.74927,-3.34817 -5.82398,-6.4246 -9.17303,-9.173 l 7.04363,-19.275 -12.38103,-7.1526 -13.18604,15.73925 c -4.00916,-1.51075 -8.20771,-2.63735 -12.54486,-3.34425 l 0.0135,-0.0135 -3.54914,-20.21692 -14.29216,4.6e-4 z m 7.15289,34.80883 c 27.82934,0 50.3996,22.55481 50.3996,50.38247 0,27.8293 -22.56813,50.3818 -50.39966,50.3818 -27.82947,0 -50.3822,-22.5543 -50.38207,-50.3818 -7e-5,-27.8296 22.55394,-50.3826 50.38213,-50.38247 z"
         id="path25"
         style="opacity:1;fill:#3c464f;fill-opacity:1;stroke-linejoin:miter" />
      <path
         d="m 342.5335,698.7499 v 0 l -12.06414,8.1461 v 0 l -15.63366,10.5556 c -1.48072,0.9999 -3.38172,1.1365 -4.9903,0.3584 v 0 l -16.90158,-8.1753 c -1.6218,-0.785 -2.69825,-2.3791 -2.81989,-4.1766 v 0 l -1.26687,-18.7316 c -0.12064,-1.78314 0.71652,-3.4955 2.19729,-4.4951 v 0 l 15.63352,-10.5554 v 0 l 12.06189,-8.1442 v 0 c -1.30829,0.8831 -2.69538,3.4159 -1.04486,5.8604 l -2e-4,-4e-4 c 0.36497,0.5405 0.79255,0.90276 1.1569,1.13383 v 0 c -12.96743,-8.21663 -29.7013,-7.99139 -42.5845,0.70502 l 0.003,-0.002 c -12.23952,8.2728 -18.7335,22.6803 -16.87685,37.16295 v 0 c 0.31952,2.49355 -0.82373,5.25765 -3.03643,6.75155 l -2.5e-4,1.5e-4 -80.58848,54.4134 v 0 c -4.50629,3.0426 -6.13205,10.50048 -1.59281,17.22305 v 0 c 4.53926,6.7226 12.06427,8.00204 16.57052,4.9593 l 8e-5,1.4e-4 80.58862,-54.41339 v 0 c 2.21342,-1.49485 5.2048,-1.52155 7.39787,-0.29335 v 0 c 12.73941,7.13454 28.52996,6.495 40.77777,-1.7657 l -0.002,0.002 c 12.88241,-8.699 19.34566,-24.13664 16.57026,-39.23595 l 5e-5,-2.5e-4 c 0.30735,1.67207 2.15323,3.83357 4.95368,3.3192 h 1.7e-4 c 0.63734,-0.1172 1.13746,-0.3624 1.4919,-0.60197 l 2.11687,-3.20143 v 0 c -0.25311,1.3055 -1.01471,2.45735 -2.11707,3.2017 v 0 m -5.6129,-8.3126 -2.11726,3.2021 v 0 c 0.2533,-1.30584 1.01471,-2.45764 2.11686,-3.20166 v 0 c 0.6299,-0.42547 1.40576,-0.78558 2.30825,-0.95147 l 1.9e-4,1.3e-4 c 3.64911,-0.67054 6.22526,2.01445 6.72473,4.73296 h -1.5e-4 c 3.49951,19.03844 -4.65244,38.44304 -20.82224,49.36139 l -0.002,0.002 c -15.37414,10.3698 -35.22943,11.1952 -51.28793,2.2013 v 10e-5 c 0.97515,0.5465 2.05985,0.5682 3.1163,-0.14543 v 0 l -80.58856,54.41343 v 0 c -10.16164,6.8615 -23.62833,2.51235 -30.49643,-7.6588 v 0 c -6.86812,-10.17156 -5.86882,-24.2877 4.29268,-31.1489 v 0 l 80.58839,-54.41256 -2.7e-4,6e-5 c -1.05588,0.71296 -1.44126,1.7269 -1.29927,2.8359 v 0 c -2.3401,-18.25606 5.84535,-36.3639 21.20911,-46.74843 l 0.002,-10e-4 c 16.17066,-10.9159 37.21472,-11.2249 53.56516,-0.8646 l -2.2e-4,-1.4e-4 c 0.63843,0.40444 1.2763,0.96874 1.78803,1.72654 h -2.3e-4 c 2.13554,3.1624 0.54094,6.582 -1.6553,8.0649 v 0 l -12.06173,8.14404 v 0 l -15.63347,10.5553 2.19725,-4.49394 1.26695,18.7319 -2.8201,-4.1764 16.9017,8.17556 -4.99036,0.35784 15.63348,-10.55516 v 0 z"
         id="path26"
         style="opacity:1;fill:#3c464f;fill-opacity:1;stroke-linejoin:miter" />
      <path
         d="m 251.71655,782.622 q 0.71953,1.42585 0.99979,2.4996 3.43008,8.40776 -3.12414,15.29716 -4.22823,5.19834 -27.36162,14.37299 l -0.53383,1.85175 q -4.1523,14.97753 -9.62574,17.8727 -5.82086,3.714 -17.90007,4.1122 -13.53819,11.2939 -23.4635,13.26326 -6.41412,0.96554 -12.82277,-1.32 -4.38842,-1.12396 -17.30237,-8.29706 -10.56176,-1.08 -14.71762,-3.0183 -4.9319,-2.2145 -7.07874,-4.33265 -4.33222,-4.11545 -7.53135,-10.45645 -5.49554,-10.8923 -7.64734,-28.3526 -4.276584,-28.0845 -6.540066,-89.95536 L 172.503,669.7453 l 18.53318,36.8671 25.4985,7.3303 q 6.21427,29.41674 11.13129,39.16295 0.36067,0.7146 0.7144,1.32335 2.52818,4.68166 5.45169,7.8678 12.85174,12.2132 13.3645,13.22926 0.056,0.11121 -0.0354,0.0884 3.13434,4.1909 4.55539,7.0075 z"
         id="path27"
         style="opacity:1;fill:#ffb185;fill-opacity:1;stroke-linejoin:miter" />
      <path
         d="m 157.63625,640.4917 12.6909,25.15655 12.69174,25.15601 Q 135.01794,715.02124 87.01691,739.2389 74.32453,714.08295 61.632347,688.9271 109.63429,664.7095 157.63625,640.4917 Z"
         id="path28"
         style="opacity:1;fill:#ffffff;fill-opacity:1;stroke-linejoin:miter" />
      <path
         d="M 33.812572,659.9194 90.1848,632.28064 146.55702,604.6419 q 16.31279,33.2712 32.6256,66.54237 L 66.43894,726.4632 Q 50.12577,693.1913 33.812572,659.9194"
         id="path29"
         style="opacity:1;fill:#000000;fill-opacity:1;stroke-linejoin:miter" />
      <path
         d="m 298.1495,664.2386 c -7.6728,0 -15.36303,2.24724 -22.02926,6.746 h -0.001 c -0.002,10e-4 -0.004,0.003 -0.006,0.004 -12.32888,8.3347 -18.87105,22.84894 -17.0004,37.4406 0.30614,2.389 -0.793,5.04274 -2.91002,6.472 l -4e-4,3e-4 -34.02711,22.97596 h -5.8e-4 c -0.032,0.0208 -0.0602,0.048 -0.0825,0.0808 l -6e-4,8.3e-4 c -0.0557,0.082 -0.0647,0.18356 -0.0305,0.27096 h -5.7e-4 q 2.83663,10.03699 5.34427,15.00751 v 3e-5 q 0.3646,0.7224 0.72267,1.3386 h -1.8e-4 q 2.54362,4.7083 5.48923,7.9185 l 0.014,0.0143 q 0.10693,0.1016 0.21893,0.2089 c 0.0555,0.0533 0.12839,0.0814 0.20239,0.0814 0.0387,0 0.0777,-0.008 0.11472,-0.0235 0.0216,-0.009 0.0418,-0.0208 0.0601,-0.0346 h -7e-4 l 37.2817,-25.1726 7e-5,-4e-5 c 1.11893,-0.75566 2.45093,-1.12122 3.77228,-1.12122 1.17453,0 2.33362,0.28886 3.31903,0.8407 5.91678,3.3136 12.48697,4.96296 19.05887,4.96296 7.68435,0 15.37215,-2.25477 22.02285,-6.73884 5e-4,-3e-4 10e-4,-6.1e-4 10e-4,-9.6e-4 h -10e-4 c 11.07511,-7.4786 17.44147,-19.90126 17.33293,-32.8373 -9.6e-4,-0.1102 -0.0638,-0.21057 -0.16245,-0.2595 l -0.002,-9e-4 c -0.0411,-0.0204 -0.0856,-0.0304 -0.13001,-0.0304 -0.0573,0 -0.11444,0.0168 -0.16357,0.05 l -6.2507,4.2207 v 0 l -15.63364,10.5556 v 0 c -0.79413,0.5363 -1.71628,0.8088 -2.64319,0.8088 -0.70105,0 -1.40363,-0.15563 -2.05612,-0.47125 l -16.90161,-8.17529 h 6e-5 c -1.5273,-0.73926 -2.54096,-2.24026 -2.6555,-3.93311 l -1.26687,-18.73155 c -0.11358,-1.679 0.67475,-3.2917 2.0691,-4.23305 h 7e-5 l 15.63344,-10.55535 v 0 l 6.24982,-4.21906 h 2.4e-4 c 0.0865,-0.0578 0.1363,-0.15774 0.1294,-0.26254 -0.007,-0.1112 -0.0772,-0.2085 -0.18024,-0.251 -4.75934,-1.9644 -9.82696,-2.9472 -14.90116,-2.9472 z"
         id="path30"
         style="opacity:1;fill:#535d66;fill-opacity:1;stroke-linejoin:miter" />
    </g>
    <path
       id="path1"
       style="opacity:1;mix-blend-mode:color;fill:#3c71f7;fill-opacity:1;stroke-linejoin:miter"
       d="m 285.73348,574.7222 c -2e-5,27.13546 2e-5,54.2708 0,81.40625 -5.27487,1.38008 -10.37969,3.62596 -15.06836,6.79102 h -0.002 c -14.84579,10.03442 -22.95802,27.2817 -21.37891,44.9043 l -29.61914,19.99804 c -1.01528,-4.20064 -2.05752,-8.79803 -3.13086,-13.8789 l -25.49804,-7.33008 -16.63086,-33.08399 4.77734,-2.34375 C 168.30751,649.00434 157.43288,626.8229 146.5577,604.64212 L 90.184655,632.2808 33.811609,659.91947 c 10.875454,22.18124 21.751517,44.36172 32.626953,66.54297 l 11.328125,-5.55469 c 3.08312,6.11069 6.166862,12.22134 9.25,18.33203 3.748681,-1.8913 7.497413,-3.78253 11.246093,-5.67383 1.39348,27.36131 3.1704,48.27633 5.34375,62.54883 1.43453,11.64019 3.98475,21.09004 7.64844,28.35156 2.13275,4.22733 4.6431,7.7134 7.53125,10.45703 1.43122,1.4121 3.79019,2.8557 7.07812,4.33204 2.77057,1.29219 7.67759,2.29953 14.71875,3.01953 8.60929,4.78206 14.37517,7.54757 17.30078,8.29687 4.27243,1.52369 8.54815,1.96401 12.82422,1.32031 6.61687,-1.3129 14.43744,-5.73441 23.46289,-13.26367 8.0528,-0.26546 14.01982,-1.63533 17.90039,-4.11133 3.64896,-1.93011 6.85681,-7.88803 9.625,-17.87304 l 0.53516,-1.85156 c 15.42224,-6.11643 24.54251,-10.90749 27.36133,-14.37305 4.36947,-4.59293 5.40976,-9.69366 3.12305,-15.29883 -0.18684,-0.71583 -0.52032,-1.54748 -1,-2.49805 -0.94737,-1.87773 -2.46513,-4.21388 -4.55469,-7.00781 0.0609,0.0152 0.0725,-0.0137 0.0352,-0.0879 -0.20879,-0.41373 -2.48418,-2.70385 -5.76171,-5.90234 l 34.05273,-22.99414 c 3.29666,1.68478 6.73022,2.97829 10.24609,3.86328 -3e-5,56.98185 2e-5,113.96344 0,170.94531 69.52004,-7e-5 139.04052,4e-5 208.56055,0 -1e-5,31.70088 5e-5,63.40263 0,95.10351 h -82.1875 c -2e-5,1.6765 10e-6,3.3528 0,5.0293 -17.93964,-0.049 -32.90467,-0.2256 -51.72852,-0.2363 -134.63765,0.077 -246.65933,1.1215 -336.062495,3.1347 -89.403152,2.0133 -135.803595,4.5364 -139.201175,7.5684 0.12584,0.9879 5.78453,1.935 16.976565,2.8438 l 20.373047,1.3222 c 16.158857,0.8565 36.717696,1.6467 61.677735,2.3731 77.900151,2.247 181.816083,3.6015 311.746093,4.0644 136.14203,0.3312 254.4444,-0.3781 354.9082,-2.1308 99.77337,-1.7544 159.94239,-4.0959 180.50586,-7.0215 l 4.33789,-1.4512 c -3.39755,-3.032 -49.79796,-5.5551 -139.20117,-7.5684 -1.74571,-0.039 -3.8054,-0.065 -5.56836,-0.1035 v -7.8242 H 608.68466 V 921.439 c 70.07796,-3e-5 140.15641,0 210.23437,0 V 574.7222 H 552.32528 Z" />
  </g>
</svg>
